<?xml version="1.0" encoding="utf-8"?>
<!-- Generator: Adobe Illustrator 25.0.1, SVG Export Plug-In . SVG Version: 6.00 Build 0)  -->
<svg version="1.1" id="Capa_1" xmlns="http://www.w3.org/2000/svg" xmlns:xlink="http://www.w3.org/1999/xlink" x="0px" y="0px"
	 viewBox="0 0 269 56" style="enable-background:new 0 0 269 56;" xml:space="preserve">
<style type="text/css">
	.st0{fill:#FFFFFF;}
	.st1{fill:url(#SVGID_1_);}
	.st2{fill:url(#SVGID_2_);}
	.st3{fill:url(#SVGID_3_);}
	.st4{fill:url(#SVGID_4_);}
	.st5{fill:url(#SVGID_5_);}
	.st6{fill:url(#SVGID_6_);}
	.st7{fill:url(#SVGID_7_);}
	.st8{fill:url(#SVGID_8_);}
	.st9{fill:url(#SVGID_9_);}
	.st10{fill:url(#SVGID_10_);}
	.st11{fill:url(#SVGID_11_);}
	.st12{fill:url(#SVGID_12_);}
	.st13{fill:url(#SVGID_13_);}
	.st14{fill:url(#SVGID_14_);}
	.st15{fill:url(#SVGID_15_);}
</style>
<g>
	<g>
		<path class="st0" d="M75.6,25.1v2.6H63.7V7h3.1v18.1H75.6z"/>
		<path class="st0" d="M95.6,27.6h-2.4c-0.3,0-0.5-0.1-0.7-0.2c-0.2-0.1-0.3-0.3-0.4-0.5l-1.8-4.8h-9.1l-1.8,4.8
			c-0.1,0.2-0.2,0.3-0.4,0.5c-0.2,0.1-0.4,0.2-0.7,0.2H76L84.3,7h3.1L95.6,27.6z M89.5,19.9l-3.1-8c-0.2-0.5-0.4-1.2-0.7-2.1
			c-0.1,0.4-0.2,0.8-0.3,1.2c-0.1,0.4-0.2,0.7-0.3,0.9l-3.1,8H89.5z"/>
	</g>
	<g>
		<path class="st0" d="M120,23.6c0.2,0,0.3,0.1,0.4,0.2l1.2,1.3c-0.8,1-1.9,1.8-3.1,2.3c-1.2,0.5-2.7,0.8-4.4,0.8
			c-1.5,0-2.9-0.3-4.1-0.8c-1.2-0.5-2.3-1.2-3.1-2.2c-0.9-0.9-1.5-2-2-3.3c-0.5-1.3-0.7-2.7-0.7-4.3c0-1.6,0.2-3,0.7-4.3
			c0.5-1.3,1.2-2.4,2.1-3.3c0.9-0.9,2-1.7,3.2-2.2c1.2-0.5,2.6-0.8,4.1-0.8c1.5,0,2.8,0.2,3.9,0.7c1.1,0.5,2.1,1.1,3,1.9l-1,1.4
			c-0.1,0.1-0.2,0.2-0.3,0.3c-0.1,0.1-0.2,0.1-0.4,0.1c-0.2,0-0.4-0.1-0.6-0.3c-0.2-0.2-0.6-0.4-1-0.6c-0.4-0.2-0.9-0.4-1.5-0.6
			c-0.6-0.2-1.3-0.3-2.2-0.3c-1,0-2,0.2-2.8,0.5c-0.9,0.4-1.6,0.9-2.2,1.6c-0.6,0.7-1.1,1.5-1.4,2.5c-0.3,1-0.5,2.1-0.5,3.3
			c0,1.3,0.2,2.4,0.5,3.4c0.4,1,0.8,1.8,1.5,2.5s1.4,1.2,2.2,1.6c0.8,0.4,1.8,0.5,2.7,0.5c0.6,0,1.1,0,1.6-0.1
			c0.5-0.1,0.9-0.2,1.3-0.3c0.4-0.1,0.8-0.3,1.1-0.6c0.4-0.2,0.7-0.5,1.1-0.8c0.1-0.1,0.2-0.1,0.2-0.2S119.9,23.6,120,23.6z"/>
		<path class="st0" d="M143,17.7c0,1.5-0.2,3-0.7,4.3s-1.2,2.4-2.1,3.3c-0.9,0.9-2,1.7-3.2,2.2c-1.3,0.5-2.7,0.8-4.2,0.8
			c-1.5,0-2.9-0.3-4.2-0.8c-1.3-0.5-2.3-1.2-3.2-2.2c-0.9-0.9-1.6-2-2.1-3.3c-0.5-1.3-0.7-2.7-0.7-4.3c0-1.5,0.2-3,0.7-4.2
			c0.5-1.3,1.2-2.4,2.1-3.3s2-1.7,3.2-2.2c1.3-0.5,2.7-0.8,4.2-0.8c1.5,0,2.9,0.3,4.2,0.8c1.3,0.5,2.3,1.3,3.2,2.2
			c0.9,0.9,1.6,2.1,2.1,3.3C142.8,14.7,143,16.1,143,17.7z M139.9,17.7c0-1.2-0.2-2.3-0.5-3.3c-0.3-1-0.8-1.8-1.4-2.5
			c-0.6-0.7-1.4-1.2-2.2-1.6c-0.9-0.4-1.9-0.5-2.9-0.5c-1.1,0-2.1,0.2-2.9,0.5c-0.9,0.4-1.6,0.9-2.3,1.6s-1.1,1.5-1.4,2.5
			c-0.3,1-0.5,2.1-0.5,3.3c0,1.2,0.2,2.3,0.5,3.3c0.3,1,0.8,1.8,1.4,2.5s1.4,1.2,2.3,1.6c0.9,0.4,1.9,0.5,2.9,0.5
			c1.1,0,2.1-0.2,2.9-0.5c0.9-0.4,1.6-0.9,2.2-1.6c0.6-0.7,1.1-1.5,1.4-2.5C139.7,20,139.9,18.9,139.9,17.7z"/>
		<path class="st0" d="M168,7.3V28h-2.7V13.3c0-0.2,0-0.5,0-0.7c0-0.2,0-0.5,0.1-0.8l-6.9,12.6c-0.2,0.5-0.6,0.7-1.1,0.7H157
			c-0.5,0-0.9-0.2-1.1-0.7l-7-12.7c0.1,0.5,0.1,1,0.1,1.5V28h-2.7V7.3h2.3c0.3,0,0.5,0,0.6,0.1c0.1,0.1,0.3,0.2,0.4,0.4l6.9,12.4
			c0.1,0.2,0.3,0.5,0.4,0.8c0.1,0.3,0.2,0.6,0.3,0.8c0.2-0.6,0.4-1.1,0.7-1.6l6.8-12.4c0.1-0.2,0.3-0.4,0.4-0.4
			c0.1-0.1,0.4-0.1,0.6-0.1H168z"/>
		<path class="st0" d="M178.8,7.3c1.3,0,2.5,0.2,3.5,0.5c1,0.3,1.8,0.7,2.4,1.3c0.6,0.6,1.1,1.2,1.4,2c0.3,0.8,0.5,1.7,0.5,2.6
			c0,1-0.2,1.9-0.5,2.7c-0.3,0.8-0.8,1.5-1.5,2.1c-0.7,0.6-1.5,1-2.4,1.4c-1,0.3-2.1,0.5-3.4,0.5h-3.2V28h-3.1V7.3H178.8z M178.8,18
			c0.8,0,1.5-0.1,2.1-0.3c0.6-0.2,1.1-0.5,1.5-0.9c0.4-0.4,0.7-0.8,0.9-1.3c0.2-0.5,0.3-1.1,0.3-1.7c0-1.3-0.4-2.2-1.2-3
			c-0.8-0.7-2-1.1-3.6-1.1h-3.2V18H178.8z"/>
		<path class="st0" d="M205,28h-2.4c-0.3,0-0.5-0.1-0.7-0.2c-0.2-0.1-0.3-0.3-0.4-0.5l-1.8-4.8h-9.1l-1.8,4.8
			c-0.1,0.2-0.2,0.3-0.4,0.5c-0.2,0.1-0.4,0.2-0.7,0.2h-2.4l8.2-20.7h3.1L205,28z M198.9,20.3l-3.1-8c-0.2-0.5-0.4-1.2-0.7-2.1
			c-0.1,0.4-0.2,0.8-0.3,1.2c-0.1,0.4-0.2,0.7-0.3,0.9l-3.1,8H198.9z"/>
		<path class="st0" d="M223.9,7.3V28h-1.6c-0.2,0-0.4,0-0.6-0.1s-0.3-0.2-0.5-0.4l-11.7-15.1c0,0.3,0,0.5,0.1,0.8c0,0.2,0,0.5,0,0.7
			V28H207V7.3h1.6c0.3,0,0.5,0,0.6,0.1c0.1,0.1,0.3,0.2,0.4,0.4L221.3,23c0-0.3-0.1-0.5-0.1-0.8c0-0.3,0-0.5,0-0.7V7.3H223.9z
			 M217.5,4c0.2,0,0.4,0,0.6-0.1c0.2-0.1,0.3-0.2,0.4-0.3c0.1-0.1,0.2-0.3,0.3-0.5c0.1-0.2,0.1-0.3,0.1-0.5h1.7
			c0,0.4-0.1,0.8-0.2,1.2s-0.3,0.7-0.5,1c-0.2,0.3-0.5,0.5-0.8,0.7c-0.3,0.2-0.7,0.3-1.2,0.3c-0.4,0-0.8-0.1-1.2-0.2
			c-0.3-0.2-0.7-0.3-1-0.5c-0.3-0.2-0.6-0.4-0.8-0.5c-0.3-0.2-0.5-0.2-0.8-0.2c-0.2,0-0.4,0-0.6,0.1c-0.2,0.1-0.3,0.2-0.4,0.3
			c-0.1,0.1-0.2,0.3-0.2,0.5c-0.1,0.2-0.1,0.3-0.1,0.5H211c0-0.4,0.1-0.8,0.2-1.2c0.1-0.4,0.3-0.8,0.5-1.1c0.2-0.3,0.5-0.6,0.9-0.7
			c0.3-0.2,0.7-0.3,1.2-0.3c0.5,0,0.8,0.1,1.2,0.2c0.3,0.2,0.7,0.3,1,0.5c0.3,0.2,0.6,0.4,0.8,0.5C216.9,3.9,217.2,4,217.5,4z"/>
		<path class="st0" d="M235.6,1.3l-4.7,4.1c-0.2,0.1-0.3,0.2-0.4,0.3c-0.1,0-0.3,0.1-0.5,0.1h-2l3.3-3.9c0.1-0.1,0.2-0.2,0.3-0.3
			c0.1-0.1,0.2-0.1,0.3-0.1c0.1,0,0.2-0.1,0.3-0.1c0.1,0,0.3,0,0.4,0H235.6z M231.5,28h-3.1V7.3h3.1V28z"/>
		<path class="st0" d="M253.1,28h-2.4c-0.3,0-0.5-0.1-0.7-0.2c-0.2-0.1-0.3-0.3-0.4-0.5l-1.8-4.8h-9.1l-1.8,4.8
			c-0.1,0.2-0.2,0.3-0.4,0.5c-0.2,0.1-0.4,0.2-0.7,0.2h-2.4l8.2-20.7h3.1L253.1,28z M247,20.3l-3.1-8c-0.2-0.5-0.4-1.2-0.7-2.1
			c-0.1,0.4-0.2,0.8-0.3,1.2c-0.1,0.4-0.2,0.7-0.3,0.9l-3.1,8H247z"/>
	</g>
	<g>
		<path class="st0" d="M81.8,43c0,1.6-0.2,3-0.7,4.2c-0.5,1.3-1.1,2.3-2,3.2c-0.9,0.9-1.9,1.6-3.1,2c-1.2,0.5-2.5,0.7-4,0.7h-7.5
			V32.8h7.5c1.5,0,2.8,0.2,4,0.7c1.2,0.5,2.2,1.1,3.1,2c0.9,0.9,1.5,2,2,3.2C81.5,40,81.8,41.4,81.8,43z M80.2,43
			c0-1.4-0.2-2.7-0.6-3.8c-0.4-1.1-1-2.1-1.7-2.8c-0.7-0.8-1.6-1.4-2.6-1.8c-1-0.4-2.1-0.6-3.4-0.6h-6v18h6c1.2,0,2.4-0.2,3.4-0.6
			c1-0.4,1.9-1,2.6-1.8c0.7-0.8,1.3-1.7,1.7-2.8C80,45.7,80.2,44.4,80.2,43z"/>
		<path class="st0" d="M95.4,53.2h-1.5V32.8h1.5V53.2z"/>
		<path class="st0" d="M125.2,44v7.2c-1,0.7-2.1,1.3-3.3,1.7c-1.2,0.4-2.5,0.6-3.9,0.6c-1.6,0-3.1-0.2-4.4-0.7
			c-1.3-0.5-2.4-1.2-3.3-2.1c-0.9-0.9-1.6-2-2.1-3.3c-0.5-1.3-0.7-2.7-0.7-4.3c0-1.6,0.2-3,0.7-4.3c0.5-1.3,1.2-2.4,2.1-3.3
			c0.9-0.9,2-1.6,3.3-2.1c1.3-0.5,2.7-0.7,4.3-0.7c0.8,0,1.5,0.1,2.2,0.2c0.7,0.1,1.3,0.3,1.9,0.5c0.6,0.2,1.1,0.5,1.6,0.8
			c0.5,0.3,1,0.7,1.4,1l-0.4,0.6c-0.1,0.2-0.3,0.3-0.6,0.2c-0.1-0.1-0.4-0.2-0.6-0.4c-0.3-0.2-0.6-0.4-1.1-0.7
			c-0.5-0.2-1.1-0.4-1.8-0.6c-0.7-0.2-1.6-0.3-2.6-0.3c-1.3,0-2.6,0.2-3.6,0.6c-1.1,0.4-2,1-2.8,1.8c-0.8,0.8-1.4,1.7-1.8,2.9
			c-0.4,1.1-0.6,2.4-0.6,3.8c0,1.4,0.2,2.7,0.6,3.9c0.4,1.1,1,2.1,1.8,2.9c0.8,0.8,1.7,1.4,2.8,1.8c1.1,0.4,2.4,0.6,3.8,0.6
			c0.6,0,1.2,0,1.7-0.1c0.5-0.1,1-0.2,1.5-0.3c0.5-0.1,0.9-0.3,1.4-0.5c0.4-0.2,0.9-0.4,1.3-0.7v-5.5h-3.9c-0.1,0-0.2,0-0.3-0.1
			c-0.1-0.1-0.1-0.1-0.1-0.2V44H125.2z"/>
		<path class="st0" d="M138.9,53.2h-1.5V32.8h1.5V53.2z"/>
		<path class="st0" d="M165.7,34.1h-7.2v19.1H157V34.1h-7.3v-1.3h16V34.1z"/>
		<path class="st0" d="M190.1,53.2H189c-0.1,0-0.2,0-0.3-0.1c-0.1-0.1-0.2-0.2-0.2-0.3l-2.4-5.9h-10.1l-2.4,5.9
			c0,0.1-0.1,0.2-0.2,0.3c-0.1,0.1-0.2,0.1-0.3,0.1h-1.1l8.4-20.4h1.5L190.1,53.2z M185.6,45.8l-4.2-10.3c-0.1-0.3-0.3-0.7-0.4-1.2
			c-0.1,0.2-0.1,0.4-0.2,0.7c-0.1,0.2-0.1,0.4-0.2,0.6l-4.2,10.3H185.6z"/>
		<path class="st0" d="M212.1,51.9v1.3h-11.3V32.8h1.5v19.1H212.1z"/>
	</g>
	<linearGradient id="SVGID_1_" gradientUnits="userSpaceOnUse" x1="4.7826" y1="0.9389" x2="51.9121" y2="52.0132">
		<stop  offset="0" style="stop-color:#FFDA00"/>
		<stop  offset="1" style="stop-color:#E8AD00"/>
	</linearGradient>
	<path class="st1" d="M14.7,11.5v3.2c0.8-1.1,1.7-2.2,2.6-3.2H14.7z"/>
	<linearGradient id="SVGID_2_" gradientUnits="userSpaceOnUse" x1="-3.5197" y1="8.6" x2="43.6098" y2="59.6743">
		<stop  offset="0" style="stop-color:#FFDA00"/>
		<stop  offset="1" style="stop-color:#E8AD00"/>
	</linearGradient>
	<path class="st2" d="M11.9,19.7H6.5v5.4h3.6c0.4-1.8,1-3.5,1.7-5.3C11.9,19.8,11.9,19.7,11.9,19.7z"/>
	<linearGradient id="SVGID_3_" gradientUnits="userSpaceOnUse" x1="8.7757" y1="-2.7457" x2="55.9052" y2="48.3285">
		<stop  offset="0" style="stop-color:#FFDA00"/>
		<stop  offset="1" style="stop-color:#E8AD00"/>
	</linearGradient>
	<rect x="14.7" y="3.9" class="st3" width="4.9" height="4.9"/>
	<linearGradient id="SVGID_4_" gradientUnits="userSpaceOnUse" x1="0.5855" y1="4.8119" x2="47.715" y2="55.8861">
		<stop  offset="0" style="stop-color:#FFDA00"/>
		<stop  offset="1" style="stop-color:#E8AD00"/>
	</linearGradient>
	<rect x="7.1" y="12.1" class="st4" width="4.9" height="4.9"/>
	<linearGradient id="SVGID_5_" gradientUnits="userSpaceOnUse" x1="-8.2141" y1="12.9318" x2="38.9154" y2="64.0061">
		<stop  offset="0" style="stop-color:#FFDA00"/>
		<stop  offset="1" style="stop-color:#E8AD00"/>
	</linearGradient>
	<path class="st5" d="M9.6,28.4H7.1v4.9h2.4c-0.1-0.7-0.1-1.5-0.1-2.2C9.4,30.2,9.5,29.3,9.6,28.4z"/>
	<linearGradient id="SVGID_6_" gradientUnits="userSpaceOnUse" x1="-7.6275" y1="12.3905" x2="39.502" y2="63.4647">
		<stop  offset="0" style="stop-color:#FFDA00"/>
		<stop  offset="1" style="stop-color:#E8AD00"/>
	</linearGradient>
	<rect x="-1.1" y="19.7" class="st6" width="4.9" height="4.9"/>
	<linearGradient id="SVGID_7_" gradientUnits="userSpaceOnUse" x1="0.2787" y1="5.0949" x2="47.4082" y2="56.1692">
		<stop  offset="0" style="stop-color:#FFDA00"/>
		<stop  offset="1" style="stop-color:#E8AD00"/>
	</linearGradient>
	<rect x="0.5" y="5.5" class="st7" width="3.3" height="3.3"/>
	<linearGradient id="SVGID_8_" gradientUnits="userSpaceOnUse" x1="11.7389" y1="-5.4801" x2="58.8684" y2="45.5941">
		<stop  offset="0" style="stop-color:#FFDA00"/>
		<stop  offset="1" style="stop-color:#E8AD00"/>
	</linearGradient>
	<rect x="14.7" y="-2.1" class="st8" width="3.8" height="3.8"/>
	<linearGradient id="SVGID_9_" gradientUnits="userSpaceOnUse" x1="4.3858" y1="1.3051" x2="51.5153" y2="52.3793">
		<stop  offset="0" style="stop-color:#FFDA00"/>
		<stop  offset="1" style="stop-color:#E8AD00"/>
	</linearGradient>
	<rect x="7.6" y="5" class="st9" width="3.8" height="3.8"/>
	<linearGradient id="SVGID_10_" gradientUnits="userSpaceOnUse" x1="-3.8044" y1="8.8627" x2="43.3251" y2="59.937">
		<stop  offset="0" style="stop-color:#FFDA00"/>
		<stop  offset="1" style="stop-color:#E8AD00"/>
	</linearGradient>
	<rect x="0" y="13.1" class="st10" width="3.8" height="3.8"/>
	<linearGradient id="SVGID_11_" gradientUnits="userSpaceOnUse" x1="1.4633" y1="4.0018" x2="48.5928" y2="55.0761">
		<stop  offset="0" style="stop-color:#FFDA00"/>
		<stop  offset="1" style="stop-color:#E8AD00"/>
	</linearGradient>
	<path class="st11" d="M47.6,41h-4.4V30.5c-1,0.7-2.1,1.3-3.1,1.9V41h-5.8v-5.7c-0.6,0.3-1.3,0.5-1.9,0.8c-0.4,0.2-0.8,0.3-1.2,0.5
		V41h-5.8v-2.6c-4.5,1.2-9.3,1.9-14.2,2.2c1.7,4.8,4.4,8.6,8.2,11.7c4.8,3.8,10.6,5.7,17.3,5.7c2.9,0,5.9-0.4,8.8-1.1L49,56V26.2
		c-0.5,0.4-0.9,0.7-1.4,1.1V41z"/>
	<g>
		<linearGradient id="SVGID_12_" gradientUnits="userSpaceOnUse" x1="8.2726" y1="-2.2815" x2="55.4021" y2="48.7928">
			<stop  offset="0" style="stop-color:#FFDA00"/>
			<stop  offset="1" style="stop-color:#E8AD00"/>
		</linearGradient>
		<polygon class="st12" points="31.3,22.6 31.3,22.7 31.3,22.7 		"/>
	</g>
	<g>
		<linearGradient id="SVGID_13_" gradientUnits="userSpaceOnUse" x1="8.2726" y1="-2.2815" x2="55.4021" y2="48.7928">
			<stop  offset="0" style="stop-color:#FFDA00"/>
			<stop  offset="1" style="stop-color:#E8AD00"/>
		</linearGradient>
		<polygon class="st13" points="31.3,22.7 31.3,22.6 31.3,22.7 		"/>
		<linearGradient id="SVGID_14_" gradientUnits="userSpaceOnUse" x1="8.2913" y1="-2.2988" x2="55.4208" y2="48.7755">
			<stop  offset="0" style="stop-color:#FFDA00"/>
			<stop  offset="1" style="stop-color:#E8AD00"/>
		</linearGradient>
		<path class="st14" d="M37.4,3.3c-5.8,0-10.9,1.4-15.4,4.3c-1.7,1.1-3.3,2.4-4.7,3.9h2.9V17h-5.4v-2.3c-1.1,1.5-2,3.2-2.8,5H12v5.4
			h-1.9c-0.2,1.1-0.4,2.2-0.5,3.3H12v4.9H9.5c0.1,0.9,0.2,1.8,0.4,2.7c5.5-0.7,10.7-1.8,15.4-3.4v-0.8v-5.5l5.8-3.5v7.7
			c1.1-0.5,2.1-0.9,3.1-1.4v-6.3v-1.8l5.8-3.5v1.6v6.7c1.1-0.7,2.1-1.4,3.1-2.2v-4.6l0-0.6v-2.9l4.4-2.7v3.6l1.4-0.3V5.2
			C45.3,4,41.4,3.3,37.4,3.3z M20.7,25.7h-6v-6h6V25.7z M27.8,17h-4.9v-4.9h4.9V17z M31.3,22.7L31.3,22.7L31.3,22.7L31.3,22.7z"/>
	</g>
	<g>
		<linearGradient id="SVGID_15_" gradientUnits="userSpaceOnUse" x1="4.9252" y1="0.8073" x2="52.0547" y2="51.8816">
			<stop  offset="0" style="stop-color:#FFDA00"/>
			<stop  offset="1" style="stop-color:#E8AD00"/>
		</linearGradient>
		<path class="st15" d="M55,17.5l-0.4-0.4c-0.4-0.4-1.2-0.6-1.8-0.4l-0.1,0l0,0c0,0,0,0,0,0l-6.5,1.6c-0.2,0.1-0.3,0.2-0.1,0.3
			l1.3,1.2c0.1,0.1,0.4,0.2,0.6,0.1l2-0.5C39.2,30.3,24.4,36.4,5.7,38c-0.7,0.1-0.6,1,0,1c18.1,0.4,33.8-5.6,46.1-17.6l-0.7,1.9
			c-0.1,0.2,0,0.5,0.1,0.6l1.3,1.2c0.1,0.1,0.3,0.1,0.4-0.1l2.3-5.9C55.5,18.6,55.4,17.9,55,17.5z"/>
	</g>
</g>
</svg>
