<?xml version="1.0" encoding="utf-8"?>
<!-- Generator: Adobe Illustrator 25.0.1, SVG Export Plug-In . SVG Version: 6.00 Build 0)  -->
<svg version="1.1" id="Capa_1" xmlns="http://www.w3.org/2000/svg" xmlns:xlink="http://www.w3.org/1999/xlink" x="0px" y="0px"
	 viewBox="0 0 269 56" style="enable-background:new 0 0 269 56;" xml:space="preserve">
<style type="text/css">
	.st0{fill:#4A4A49;}
	.st1{fill:url(#SVGID_1_);}
	.st2{fill:url(#SVGID_2_);}
	.st3{fill:url(#SVGID_3_);}
	.st4{fill:url(#SVGID_4_);}
	.st5{fill:url(#SVGID_5_);}
	.st6{fill:url(#SVGID_6_);}
	.st7{fill:url(#SVGID_7_);}
	.st8{fill:url(#SVGID_8_);}
	.st9{fill:url(#SVGID_9_);}
	.st10{fill:url(#SVGID_10_);}
	.st11{fill:url(#SVGID_11_);}
	.st12{fill:url(#SVGID_12_);}
	.st13{fill:url(#SVGID_13_);}
	.st14{fill:url(#SVGID_14_);}
	.st15{fill:url(#SVGID_15_);}
</style>
<g>
	<g>
		<path class="st0" d="M67,28.6v2.8H54V8.8h3.4v19.8H67z"/>
		<path class="st0" d="M88.9,31.4h-2.6c-0.3,0-0.5-0.1-0.7-0.2c-0.2-0.1-0.3-0.3-0.4-0.6l-2-5.2h-10l-2,5.2
			c-0.1,0.2-0.2,0.4-0.4,0.5c-0.2,0.2-0.4,0.2-0.7,0.2h-2.6l9-22.6h3.4L88.9,31.4z M82.2,23l-3.4-8.8c-0.2-0.6-0.5-1.4-0.7-2.3
			c-0.1,0.5-0.2,0.9-0.4,1.3c-0.1,0.4-0.2,0.7-0.4,1L74.1,23H82.2z"/>
	</g>
	<g>
		<path class="st0" d="M120.8,26.3c0.2,0,0.4,0.1,0.5,0.2l1.3,1.4c-0.9,1.1-2,1.9-3.4,2.5c-1.3,0.6-2.9,0.9-4.8,0.9
			c-1.6,0-3.1-0.3-4.4-0.9c-1.3-0.6-2.5-1.4-3.4-2.4c-0.9-1-1.7-2.2-2.2-3.7c-0.5-1.4-0.8-3-0.8-4.7c0-1.7,0.3-3.3,0.8-4.7
			c0.5-1.4,1.3-2.6,2.3-3.7c1-1,2.1-1.8,3.5-2.4c1.4-0.6,2.9-0.9,4.5-0.9c1.6,0,3,0.3,4.3,0.8c1.2,0.5,2.3,1.2,3.3,2.1l-1.1,1.6
			c-0.1,0.1-0.2,0.2-0.3,0.3c-0.1,0.1-0.3,0.1-0.4,0.1c-0.2,0-0.4-0.1-0.7-0.3c-0.3-0.2-0.6-0.4-1.1-0.7c-0.4-0.2-1-0.5-1.6-0.7
			c-0.6-0.2-1.4-0.3-2.4-0.3c-1.1,0-2.2,0.2-3.1,0.6c-0.9,0.4-1.7,1-2.4,1.7c-0.7,0.7-1.2,1.6-1.6,2.7c-0.4,1.1-0.6,2.3-0.6,3.6
			c0,1.4,0.2,2.6,0.6,3.7c0.4,1.1,0.9,2,1.6,2.7c0.7,0.7,1.5,1.3,2.4,1.7c0.9,0.4,1.9,0.6,3,0.6c0.7,0,1.2,0,1.8-0.1
			c0.5-0.1,1-0.2,1.4-0.4c0.4-0.2,0.8-0.4,1.2-0.6c0.4-0.2,0.8-0.5,1.1-0.9c0.1-0.1,0.2-0.1,0.3-0.2
			C120.6,26.3,120.7,26.3,120.8,26.3z"/>
		<path class="st0" d="M146,19.8c0,1.7-0.3,3.2-0.8,4.7c-0.5,1.4-1.3,2.6-2.3,3.7c-1,1-2.2,1.8-3.5,2.4c-1.4,0.6-2.9,0.9-4.6,0.9
			c-1.7,0-3.2-0.3-4.6-0.9c-1.4-0.6-2.6-1.4-3.5-2.4c-1-1-1.7-2.2-2.3-3.7c-0.5-1.4-0.8-3-0.8-4.7c0-1.7,0.3-3.2,0.8-4.6
			c0.5-1.4,1.3-2.6,2.3-3.7c1-1,2.2-1.8,3.5-2.4c1.4-0.6,2.9-0.9,4.6-0.9c1.7,0,3.2,0.3,4.6,0.9c1.4,0.6,2.6,1.4,3.5,2.4
			c1,1,1.7,2.2,2.3,3.7C145.7,16.6,146,18.2,146,19.8z M142.6,19.8c0-1.3-0.2-2.6-0.6-3.6c-0.4-1.1-0.9-2-1.6-2.7
			c-0.7-0.7-1.5-1.3-2.5-1.7c-1-0.4-2-0.6-3.2-0.6c-1.2,0-2.3,0.2-3.2,0.6c-1,0.4-1.8,1-2.5,1.7c-0.7,0.7-1.2,1.7-1.6,2.7
			c-0.4,1.1-0.6,2.3-0.6,3.6c0,1.4,0.2,2.6,0.6,3.6c0.4,1.1,0.9,2,1.6,2.7s1.5,1.3,2.5,1.7c1,0.4,2,0.6,3.2,0.6
			c1.2,0,2.3-0.2,3.2-0.6c1-0.4,1.8-1,2.5-1.7c0.7-0.7,1.2-1.7,1.6-2.7C142.4,22.4,142.6,21.2,142.6,19.8z"/>
		<path class="st0" d="M173.4,8.5v22.6h-2.9V15.1c0-0.2,0-0.5,0-0.8c0-0.3,0-0.6,0.1-0.8L163,27.3c-0.3,0.5-0.7,0.8-1.2,0.8h-0.5
			c-0.5,0-0.9-0.3-1.2-0.8l-7.7-13.9c0.1,0.6,0.1,1.1,0.1,1.7v16.1h-2.9V8.5h2.5c0.3,0,0.5,0,0.7,0.1c0.2,0.1,0.3,0.2,0.5,0.5
			l7.6,13.5c0.1,0.3,0.3,0.6,0.4,0.9c0.1,0.3,0.2,0.6,0.4,0.9c0.2-0.6,0.5-1.2,0.8-1.8l7.4-13.5c0.1-0.3,0.3-0.4,0.4-0.5
			c0.2-0.1,0.4-0.1,0.7-0.1H173.4z"/>
		<path class="st0" d="M185.2,8.5c1.4,0,2.7,0.2,3.8,0.5c1.1,0.3,2,0.8,2.7,1.4c0.7,0.6,1.2,1.4,1.6,2.2c0.3,0.9,0.5,1.8,0.5,2.9
			c0,1.1-0.2,2-0.6,2.9c-0.4,0.9-0.9,1.7-1.6,2.3c-0.7,0.6-1.6,1.1-2.7,1.5c-1.1,0.4-2.3,0.5-3.7,0.5h-3.5v8.3h-3.4V8.5H185.2z
			 M185.2,20.2c0.9,0,1.6-0.1,2.2-0.3c0.6-0.2,1.2-0.5,1.6-0.9c0.4-0.4,0.8-0.9,1-1.4c0.2-0.6,0.3-1.2,0.3-1.9
			c0-1.4-0.4-2.5-1.3-3.2c-0.9-0.8-2.2-1.2-3.9-1.2h-3.5v9H185.2z"/>
		<path class="st0" d="M213.8,31.1h-2.6c-0.3,0-0.5-0.1-0.7-0.2c-0.2-0.1-0.3-0.3-0.4-0.6l-2-5.2h-10l-2,5.2
			c-0.1,0.2-0.2,0.4-0.4,0.5c-0.2,0.2-0.4,0.2-0.7,0.2h-2.6l9-22.6h3.4L213.8,31.1z M207.2,22.7l-3.4-8.8c-0.2-0.6-0.5-1.4-0.7-2.3
			c-0.1,0.5-0.2,0.9-0.4,1.3c-0.1,0.4-0.2,0.7-0.4,1l-3.3,8.7H207.2z"/>
		<path class="st0" d="M234.5,8.5v22.6h-1.7c-0.3,0-0.5,0-0.7-0.1c-0.2-0.1-0.3-0.2-0.5-0.5L218.8,14c0,0.3,0,0.6,0.1,0.8
			c0,0.3,0,0.5,0,0.8v15.5H216V8.5h1.7c0.3,0,0.5,0,0.7,0.1c0.1,0.1,0.3,0.2,0.5,0.5l12.8,16.5c0-0.3-0.1-0.6-0.1-0.9
			c0-0.3,0-0.6,0-0.8V8.5H234.5z M227.4,4.8c0.2,0,0.5,0,0.6-0.1c0.2-0.1,0.3-0.2,0.4-0.4c0.1-0.1,0.2-0.3,0.3-0.5
			c0.1-0.2,0.1-0.4,0.1-0.6h1.9c0,0.5-0.1,0.9-0.2,1.4s-0.3,0.8-0.6,1.1c-0.3,0.3-0.6,0.6-0.9,0.8c-0.4,0.2-0.8,0.3-1.3,0.3
			c-0.5,0-0.9-0.1-1.3-0.3c-0.4-0.2-0.7-0.4-1-0.6c-0.3-0.2-0.6-0.4-0.9-0.6c-0.3-0.2-0.6-0.3-0.9-0.3c-0.2,0-0.5,0-0.6,0.1
			c-0.2,0.1-0.3,0.2-0.4,0.4c-0.1,0.2-0.2,0.3-0.3,0.5c-0.1,0.2-0.1,0.4-0.1,0.6h-1.9c0-0.5,0.1-0.9,0.2-1.4
			c0.1-0.4,0.3-0.8,0.6-1.2c0.3-0.3,0.6-0.6,0.9-0.8c0.4-0.2,0.8-0.3,1.3-0.3c0.5,0,0.9,0.1,1.3,0.3c0.4,0.2,0.7,0.4,1,0.6
			c0.3,0.2,0.6,0.4,0.9,0.6C226.8,4.7,227.1,4.8,227.4,4.8z"/>
		<path class="st0" d="M247.3,2l-5.1,4.5c-0.2,0.1-0.3,0.2-0.5,0.3c-0.1,0-0.3,0.1-0.6,0.1h-2.2l3.6-4.3c0.1-0.1,0.2-0.2,0.3-0.3
			c0.1-0.1,0.2-0.1,0.3-0.2c0.1,0,0.2-0.1,0.4-0.1c0.1,0,0.3,0,0.5,0H247.3z M242.8,31.1h-3.4V8.5h3.4V31.1z"/>
		<path class="st0" d="M266.4,31.1h-2.6c-0.3,0-0.5-0.1-0.7-0.2c-0.2-0.1-0.3-0.3-0.4-0.6l-2-5.2h-10l-2,5.2
			c-0.1,0.2-0.2,0.4-0.4,0.5c-0.2,0.2-0.4,0.2-0.7,0.2H245l9-22.6h3.4L266.4,31.1z M259.8,22.7l-3.4-8.8c-0.2-0.6-0.5-1.4-0.7-2.3
			c-0.1,0.5-0.2,0.9-0.4,1.3c-0.1,0.4-0.2,0.7-0.4,1l-3.3,8.7H259.8z"/>
	</g>
	<g>
		<path class="st0" d="M73.5,44.3c0,1.7-0.3,3.2-0.8,4.5c-0.5,1.3-1.2,2.5-2.1,3.4c-0.9,0.9-2,1.7-3.3,2.2c-1.3,0.5-2.7,0.8-4.3,0.8
			h-8V33.5h8c1.6,0,3,0.3,4.3,0.8c1.3,0.5,2.4,1.2,3.3,2.2c0.9,0.9,1.6,2.1,2.1,3.4C73.3,41.2,73.5,42.7,73.5,44.3z M71.9,44.3
			c0-1.5-0.2-2.9-0.6-4.1c-0.4-1.2-1-2.2-1.8-3c-0.8-0.8-1.7-1.4-2.8-1.9c-1.1-0.4-2.3-0.6-3.6-0.6h-6.4v19.2h6.4
			c1.3,0,2.5-0.2,3.6-0.6c1.1-0.4,2-1.1,2.8-1.9c0.8-0.8,1.4-1.8,1.8-3C71.7,47.2,71.9,45.9,71.9,44.3z"/>
		<path class="st0" d="M88,55.2h-1.6V33.5H88V55.2z"/>
		<path class="st0" d="M119.8,45.3v7.7c-1.1,0.8-2.3,1.4-3.5,1.8c-1.2,0.4-2.6,0.6-4.2,0.6c-1.7,0-3.3-0.3-4.7-0.8
			c-1.4-0.5-2.6-1.3-3.6-2.2c-1-1-1.7-2.1-2.3-3.5c-0.5-1.4-0.8-2.9-0.8-4.6c0-1.7,0.3-3.2,0.8-4.6c0.5-1.4,1.2-2.5,2.2-3.5
			c1-1,2.1-1.7,3.5-2.2c1.4-0.5,2.9-0.8,4.6-0.8c0.8,0,1.6,0.1,2.3,0.2c0.7,0.1,1.4,0.3,2,0.5c0.6,0.2,1.2,0.5,1.7,0.8
			c0.5,0.3,1,0.7,1.5,1.1l-0.4,0.7c-0.1,0.2-0.4,0.3-0.7,0.2c-0.2-0.1-0.4-0.2-0.7-0.4c-0.3-0.2-0.7-0.5-1.2-0.7
			c-0.5-0.2-1.1-0.5-1.9-0.7c-0.8-0.2-1.7-0.3-2.7-0.3c-1.4,0-2.7,0.2-3.9,0.7c-1.2,0.5-2.1,1.1-3,1.9c-0.8,0.8-1.4,1.9-1.9,3.1
			c-0.4,1.2-0.7,2.6-0.7,4.1c0,1.5,0.2,2.9,0.7,4.1c0.4,1.2,1.1,2.3,1.9,3.1c0.8,0.8,1.8,1.5,3,1.9c1.2,0.5,2.5,0.7,4,0.7
			c0.7,0,1.3,0,1.8-0.1c0.6-0.1,1.1-0.2,1.6-0.3c0.5-0.1,1-0.3,1.5-0.6c0.5-0.2,1-0.5,1.4-0.7v-5.8h-4.2c-0.1,0-0.2,0-0.3-0.1
			s-0.1-0.2-0.1-0.2v-0.9H119.8z"/>
		<path class="st0" d="M134.5,55.2h-1.6V33.5h1.6V55.2z"/>
		<path class="st0" d="M163.1,34.8h-7.7v20.4h-1.6V34.8H146v-1.3h17.1V34.8z"/>
		<path class="st0" d="M189.1,55.2h-1.2c-0.1,0-0.3,0-0.4-0.1c-0.1-0.1-0.2-0.2-0.2-0.3l-2.6-6.3h-10.8l-2.6,6.3
			c0,0.1-0.1,0.2-0.2,0.3c-0.1,0.1-0.2,0.1-0.4,0.1h-1.2l9-21.7h1.6L189.1,55.2z M184.2,47.3l-4.5-11c-0.2-0.4-0.3-0.8-0.5-1.3
			c-0.1,0.2-0.1,0.5-0.2,0.7c-0.1,0.2-0.2,0.4-0.2,0.6l-4.5,11H184.2z"/>
		<path class="st0" d="M212.5,53.9v1.3h-12V33.5h1.6v20.4H212.5z"/>
	</g>
	<linearGradient id="SVGID_1_" gradientUnits="userSpaceOnUse" x1="0.4588" y1="-2.2054" x2="48.1685" y2="49.4976">
		<stop  offset="0" style="stop-color:#FFDA00"/>
		<stop  offset="1" style="stop-color:#E8AD00"/>
	</linearGradient>
	<path class="st1" d="M10.5,8.5v3.2c0.8-1.1,1.7-2.2,2.6-3.2H10.5z"/>
	<linearGradient id="SVGID_2_" gradientUnits="userSpaceOnUse" x1="-7.9457" y1="5.55" x2="39.764" y2="57.253">
		<stop  offset="0" style="stop-color:#FFDA00"/>
		<stop  offset="1" style="stop-color:#E8AD00"/>
	</linearGradient>
	<path class="st2" d="M7.7,16.8H2.2v5.5h3.6c0.4-1.8,1-3.6,1.8-5.4C7.6,16.9,7.6,16.8,7.7,16.8z"/>
	<linearGradient id="SVGID_3_" gradientUnits="userSpaceOnUse" x1="4.5011" y1="-5.9354" x2="52.2107" y2="45.7676">
		<stop  offset="0" style="stop-color:#FFDA00"/>
		<stop  offset="1" style="stop-color:#E8AD00"/>
	</linearGradient>
	<rect x="10.5" y="0.8" class="st3" width="5" height="5"/>
	<linearGradient id="SVGID_4_" gradientUnits="userSpaceOnUse" x1="-3.79" y1="1.7152" x2="43.9197" y2="53.4182">
		<stop  offset="0" style="stop-color:#FFDA00"/>
		<stop  offset="1" style="stop-color:#E8AD00"/>
	</linearGradient>
	<rect x="2.8" y="9" class="st4" width="5" height="5"/>
	<linearGradient id="SVGID_5_" gradientUnits="userSpaceOnUse" x1="-12.6978" y1="9.9351" x2="35.0118" y2="61.6381">
		<stop  offset="0" style="stop-color:#FFDA00"/>
		<stop  offset="1" style="stop-color:#E8AD00"/>
	</linearGradient>
	<path class="st5" d="M5.3,25.6H2.8v5h2.5c-0.1-0.8-0.1-1.5-0.1-2.3C5.1,27.4,5.2,26.5,5.3,25.6z"/>
	<linearGradient id="SVGID_6_" gradientUnits="userSpaceOnUse" x1="-12.104" y1="9.3871" x2="35.6057" y2="61.0901">
		<stop  offset="0" style="stop-color:#FFDA00"/>
		<stop  offset="1" style="stop-color:#E8AD00"/>
	</linearGradient>
	<rect x="-5.5" y="16.8" class="st6" width="5" height="5"/>
	<linearGradient id="SVGID_7_" gradientUnits="userSpaceOnUse" x1="-4.1005" y1="2.0018" x2="43.6092" y2="53.7048">
		<stop  offset="0" style="stop-color:#FFDA00"/>
		<stop  offset="1" style="stop-color:#E8AD00"/>
	</linearGradient>
	<rect x="-3.8" y="2.4" class="st7" width="3.3" height="3.3"/>
	<linearGradient id="SVGID_8_" gradientUnits="userSpaceOnUse" x1="7.5008" y1="-8.7035" x2="55.2105" y2="42.9995">
		<stop  offset="0" style="stop-color:#FFDA00"/>
		<stop  offset="1" style="stop-color:#E8AD00"/>
	</linearGradient>
	<rect x="10.5" y="-5.3" class="st8" width="3.9" height="3.9"/>
	<linearGradient id="SVGID_9_" gradientUnits="userSpaceOnUse" x1="5.714967e-02" y1="-1.8347" x2="47.7668" y2="49.8683">
		<stop  offset="0" style="stop-color:#FFDA00"/>
		<stop  offset="1" style="stop-color:#E8AD00"/>
	</linearGradient>
	<rect x="3.3" y="1.9" class="st9" width="3.9" height="3.9"/>
	<linearGradient id="SVGID_10_" gradientUnits="userSpaceOnUse" x1="-8.2339" y1="5.8159" x2="39.4758" y2="57.5189">
		<stop  offset="0" style="stop-color:#FFDA00"/>
		<stop  offset="1" style="stop-color:#E8AD00"/>
	</linearGradient>
	<rect x="-4.4" y="10.1" class="st10" width="3.9" height="3.9"/>
	<linearGradient id="SVGID_11_" gradientUnits="userSpaceOnUse" x1="-2.9013" y1="0.8952" x2="44.8084" y2="52.5982">
		<stop  offset="0" style="stop-color:#FFDA00"/>
		<stop  offset="1" style="stop-color:#E8AD00"/>
	</linearGradient>
	<path class="st11" d="M43.8,38.4h-4.5V27.7c-1,0.7-2.1,1.3-3.2,1.9v8.8h-5.9v-5.8c-0.6,0.3-1.3,0.5-1.9,0.8
		c-0.4,0.2-0.8,0.3-1.2,0.5v4.5h-5.9v-2.7c-4.6,1.2-9.4,1.9-14.4,2.2c1.7,4.8,4.5,8.8,8.3,11.8c4.9,3.8,10.7,5.8,17.5,5.8
		c2.9,0,5.9-0.4,8.9-1.1l3.5-0.8V23.4c-0.5,0.4-0.9,0.8-1.4,1.1V38.4z"/>
	<g>
		<linearGradient id="SVGID_12_" gradientUnits="userSpaceOnUse" x1="3.9918" y1="-5.4654" x2="51.7014" y2="46.2375">
			<stop  offset="0" style="stop-color:#FFDA00"/>
			<stop  offset="1" style="stop-color:#E8AD00"/>
		</linearGradient>
		<polygon class="st12" points="27.3,19.8 27.3,19.8 27.3,19.8 		"/>
	</g>
	<g>
		<linearGradient id="SVGID_13_" gradientUnits="userSpaceOnUse" x1="3.9918" y1="-5.4654" x2="51.7014" y2="46.2375">
			<stop  offset="0" style="stop-color:#FFDA00"/>
			<stop  offset="1" style="stop-color:#E8AD00"/>
		</linearGradient>
		<polygon class="st13" points="27.3,19.8 27.3,19.8 27.3,19.8 		"/>
		<linearGradient id="SVGID_14_" gradientUnits="userSpaceOnUse" x1="4.0107" y1="-5.4829" x2="51.7204" y2="46.22">
			<stop  offset="0" style="stop-color:#FFDA00"/>
			<stop  offset="1" style="stop-color:#E8AD00"/>
		</linearGradient>
		<path class="st14" d="M33.4,0.2c-5.8,0-11,1.4-15.6,4.3c-1.8,1.1-3.3,2.4-4.8,3.9H16V14h-5.5v-2.3c-1.1,1.5-2,3.2-2.8,5.1h0.1v5.5
			H5.8c-0.2,1.1-0.4,2.2-0.5,3.3h2.5v5H5.2c0.1,0.9,0.2,1.8,0.4,2.7c5.6-0.7,10.8-1.9,15.6-3.4V29v-5.6l5.9-3.6v7.8
			c1.1-0.5,2.1-1,3.2-1.5v-6.4V18l5.9-3.5V16v6.8c1.1-0.7,2.1-1.4,3.2-2.2V16l0-0.6v-2.9l4.5-2.7v3.7l1.4-0.3v-11
			C41.4,0.9,37.5,0.2,33.4,0.2z M16.6,22.8h-6.1v-6.1h6.1V22.8z M23.7,14h-5V9h5V14z M27.3,19.8L27.3,19.8L27.3,19.8L27.3,19.8z"/>
	</g>
	<g>
		<linearGradient id="SVGID_15_" gradientUnits="userSpaceOnUse" x1="0.6032" y1="-2.3386" x2="48.3129" y2="49.3644">
			<stop  offset="0" style="stop-color:#FFDA00"/>
			<stop  offset="1" style="stop-color:#E8AD00"/>
		</linearGradient>
		<path class="st15" d="M51.3,14.6l-0.4-0.4c-0.4-0.4-1.2-0.6-1.8-0.4l-0.1,0l0,0c0,0,0,0,0,0l-6.5,1.6c-0.2,0.1-0.3,0.2-0.2,0.3
			l1.3,1.3c0.1,0.1,0.4,0.2,0.7,0.1l2-0.5c-10.9,10.8-25.9,17-44.8,18.6c-0.7,0.1-0.6,1,0,1.1c18.3,0.4,34.2-5.6,46.7-17.8l-0.7,1.9
			c-0.1,0.2,0,0.5,0.1,0.6l1.3,1.3c0.1,0.1,0.3,0.1,0.4-0.1l2.3-5.9C51.8,15.7,51.7,15,51.3,14.6z"/>
	</g>
</g>
</svg>
