<?xml version="1.0" encoding="utf-8"?>
<!-- Generator: Adobe Illustrator 25.0.1, SVG Export Plug-In . SVG Version: 6.00 Build 0)  -->
<svg version="1.1" id="Capa_1" xmlns="http://www.w3.org/2000/svg" xmlns:xlink="http://www.w3.org/1999/xlink" x="0px" y="0px"
	 viewBox="0 0 370.61 139.04" style="enable-background:new 0 0 370.61 139.04;" xml:space="preserve">
<style type="text/css">
	.st0{fill:#FFFFFF;}
	.st1{fill:url(#SVGID_1_);}
	.st2{fill:url(#SVGID_2_);}
	.st3{fill:url(#SVGID_3_);}
	.st4{fill:url(#SVGID_4_);}
	.st5{fill:url(#SVGID_5_);}
	.st6{fill:url(#SVGID_6_);}
	.st7{fill:url(#SVGID_7_);}
	.st8{fill:url(#SVGID_8_);}
	.st9{fill:url(#SVGID_9_);}
	.st10{fill:url(#SVGID_10_);}
	.st11{fill:url(#SVGID_11_);}
	.st12{fill:url(#SVGID_12_);}
	.st13{fill:url(#SVGID_13_);}
	.st14{fill:url(#SVGID_14_);}
	.st15{fill:url(#SVGID_15_);}
</style>
<g>
	<g>
		<path class="st0" d="M160.99,48.66v3.98h-18.26V20.74h4.73v27.92H160.99z"/>
		<path class="st0" d="M191.91,52.63h-3.64c-0.41,0-0.76-0.1-1.02-0.31c-0.27-0.21-0.46-0.47-0.58-0.8l-2.82-7.4h-14.06l-2.82,7.4
			c-0.1,0.28-0.3,0.54-0.58,0.77c-0.28,0.23-0.62,0.34-1.02,0.34h-3.64l12.7-31.89h4.78L191.91,52.63z M182.56,40.75l-4.73-12.37
			c-0.34-0.84-0.68-1.91-1.02-3.2c-0.16,0.64-0.33,1.23-0.5,1.78c-0.17,0.55-0.34,1.04-0.5,1.47l-4.71,12.33H182.56z"/>
	</g>
	<g>
		<path class="st0" d="M165.01,84.88c0.27,0,0.5,0.1,0.69,0.31l1.87,2.04c-1.3,1.54-2.89,2.73-4.76,3.58
			c-1.87,0.84-4.13,1.27-6.76,1.27c-2.31,0-4.4-0.4-6.27-1.2c-1.87-0.8-3.47-1.92-4.8-3.35c-1.33-1.44-2.35-3.15-3.08-5.15
			c-0.73-2-1.09-4.2-1.09-6.6c0-2.4,0.38-4.6,1.14-6.6c0.76-2,1.83-3.72,3.21-5.15c1.38-1.44,3.02-2.55,4.94-3.35
			c1.92-0.8,4.04-1.2,6.36-1.2c2.27,0,4.28,0.37,6.04,1.11c1.76,0.74,3.29,1.73,4.6,2.95l-1.55,2.2c-0.1,0.16-0.23,0.3-0.39,0.4
			c-0.16,0.1-0.36,0.16-0.61,0.16c-0.28,0-0.61-0.14-0.99-0.42c-0.38-0.28-0.87-0.6-1.49-0.94c-0.61-0.35-1.37-0.66-2.28-0.94
			c-0.9-0.28-2.03-0.42-3.38-0.42c-1.58,0-3.04,0.28-4.35,0.83c-1.32,0.56-2.45,1.35-3.41,2.4c-0.96,1.04-1.7,2.32-2.22,3.84
			c-0.53,1.52-0.79,3.23-0.79,5.14c0,1.94,0.27,3.66,0.82,5.17c0.55,1.51,1.3,2.79,2.27,3.84s2.1,1.85,3.4,2.4
			c1.3,0.55,2.71,0.82,4.22,0.82c0.92,0,1.74-0.06,2.48-0.17c0.73-0.11,1.41-0.28,2.02-0.5c0.61-0.22,1.2-0.51,1.74-0.86
			c0.55-0.35,1.09-0.77,1.62-1.26c0.12-0.1,0.24-0.19,0.38-0.26C164.72,84.91,164.86,84.88,165.01,84.88z"/>
		<path class="st0" d="M200.55,75.77c0,2.38-0.38,4.57-1.14,6.56c-0.76,1.99-1.84,3.71-3.23,5.15c-1.39,1.44-3.06,2.57-5,3.36
			c-1.94,0.8-4.09,1.2-6.46,1.2c-2.35,0-4.5-0.4-6.45-1.2c-1.95-0.8-3.61-1.92-5-3.36c-1.38-1.44-2.46-3.16-3.23-5.15
			c-0.77-1.99-1.15-4.18-1.15-6.56c0-2.37,0.38-4.55,1.15-6.55c0.77-2,1.85-3.72,3.23-5.16c1.38-1.44,3.05-2.57,5-3.38
			c1.95-0.81,4.1-1.21,6.45-1.21c2.37,0,4.52,0.4,6.46,1.21c1.94,0.81,3.61,1.93,5,3.38c1.39,1.44,2.47,3.16,3.23,5.16
			C200.16,71.22,200.55,73.4,200.55,75.77z M195.7,75.77c0-1.9-0.26-3.6-0.78-5.11c-0.52-1.51-1.26-2.79-2.21-3.84
			c-0.95-1.05-2.11-1.86-3.46-2.42c-1.35-0.56-2.87-0.84-4.54-0.84c-1.67,0-3.19,0.28-4.54,0.84c-1.35,0.56-2.51,1.37-3.48,2.42
			s-1.7,2.33-2.22,3.84c-0.52,1.51-0.78,3.21-0.78,5.11c0,1.91,0.26,3.62,0.78,5.12c0.52,1.5,1.26,2.78,2.22,3.83
			c0.96,1.05,2.12,1.85,3.48,2.41c1.35,0.56,2.87,0.83,4.54,0.83c1.67,0,3.19-0.28,4.54-0.83c1.35-0.56,2.51-1.36,3.46-2.41
			c0.96-1.05,1.69-2.33,2.21-3.83C195.44,79.39,195.7,77.68,195.7,75.77z"/>
		<path class="st0" d="M239.12,59.83v31.89h-4.13v-22.7c0-0.34,0.01-0.7,0.03-1.09c0.02-0.38,0.05-0.78,0.08-1.18l-10.62,19.48
			c-0.37,0.73-0.94,1.09-1.71,1.09h-0.67c-0.77,0-1.33-0.36-1.69-1.09l-10.82-19.54c0.09,0.83,0.13,1.61,0.13,2.33v22.7h-4.15V59.83
			h3.51c0.41,0,0.74,0.04,0.97,0.12c0.23,0.08,0.45,0.31,0.66,0.68l10.66,19.1c0.21,0.39,0.4,0.79,0.58,1.22
			c0.18,0.43,0.35,0.86,0.51,1.29c0.31-0.87,0.67-1.72,1.09-2.53l10.46-19.08c0.19-0.37,0.4-0.6,0.63-0.68
			c0.23-0.08,0.55-0.12,0.97-0.12H239.12z"/>
		<path class="st0" d="M255.78,59.83c2.04,0,3.82,0.24,5.33,0.71c1.51,0.47,2.76,1.14,3.75,2.01c0.99,0.87,1.73,1.91,2.21,3.14
			c0.48,1.23,0.72,2.59,0.72,4.09c0,1.5-0.26,2.87-0.78,4.12c-0.52,1.25-1.28,2.33-2.29,3.23c-1.01,0.9-2.26,1.6-3.76,2.1
			c-1.5,0.5-3.23,0.74-5.19,0.74h-4.93v11.75h-4.73V59.83H255.78z M255.78,76.24c1.2,0,2.25-0.16,3.16-0.47
			c0.91-0.31,1.67-0.75,2.29-1.32c0.61-0.57,1.08-1.25,1.39-2.04c0.31-0.79,0.47-1.67,0.47-2.63c0-1.94-0.6-3.46-1.81-4.57
			c-1.21-1.11-3.04-1.67-5.5-1.67h-4.93v12.7H255.78z"/>
		<path class="st0" d="M296.18,91.72h-3.64c-0.41,0-0.76-0.1-1.02-0.31c-0.27-0.21-0.46-0.47-0.58-0.8l-2.82-7.4h-14.06l-2.82,7.4
			c-0.1,0.28-0.3,0.54-0.58,0.77c-0.28,0.23-0.62,0.34-1.02,0.34H266l12.7-31.89h4.78L296.18,91.72z M286.83,79.84l-4.73-12.37
			c-0.34-0.84-0.68-1.91-1.02-3.2c-0.16,0.64-0.33,1.23-0.5,1.78c-0.17,0.55-0.34,1.04-0.5,1.47l-4.71,12.33H286.83z"/>
		<path class="st0" d="M325.38,59.83v31.89h-2.4c-0.37,0-0.68-0.07-0.92-0.2c-0.24-0.13-0.49-0.35-0.74-0.64l-18.01-23.3
			c0.03,0.4,0.06,0.79,0.08,1.18c0.02,0.39,0.03,0.75,0.03,1.09v21.88h-4.15V59.83h2.44c0.41,0,0.73,0.05,0.93,0.14
			c0.21,0.1,0.44,0.31,0.69,0.66l18.06,23.32c-0.04-0.43-0.08-0.85-0.1-1.25c-0.02-0.41-0.03-0.79-0.03-1.14V59.83H325.38z
			 M315.41,54.58c0.34,0,0.64-0.06,0.89-0.19c0.25-0.13,0.46-0.29,0.63-0.5c0.17-0.21,0.3-0.44,0.39-0.7
			c0.09-0.26,0.13-0.52,0.13-0.79h2.64c0,0.67-0.09,1.3-0.28,1.91c-0.19,0.61-0.45,1.14-0.81,1.61c-0.36,0.47-0.79,0.84-1.31,1.12
			c-0.52,0.28-1.12,0.42-1.8,0.42c-0.68,0-1.29-0.12-1.82-0.36c-0.53-0.24-1.03-0.5-1.48-0.79c-0.45-0.29-0.88-0.56-1.28-0.8
			c-0.4-0.24-0.8-0.37-1.2-0.37c-0.34,0-0.64,0.07-0.89,0.2c-0.25,0.13-0.46,0.31-0.62,0.52c-0.16,0.21-0.29,0.46-0.38,0.72
			c-0.09,0.27-0.13,0.53-0.13,0.78h-2.69c0-0.67,0.09-1.31,0.28-1.92c0.19-0.61,0.46-1.16,0.82-1.63c0.36-0.47,0.8-0.85,1.32-1.13
			c0.52-0.28,1.11-0.42,1.78-0.42c0.7,0,1.31,0.12,1.84,0.37c0.53,0.24,1.02,0.51,1.48,0.8c0.45,0.29,0.87,0.55,1.27,0.79
			C314.59,54.47,315,54.58,315.41,54.58z"/>
		<path class="st0" d="M343.46,50.54l-7.24,6.35c-0.25,0.21-0.48,0.34-0.69,0.4c-0.21,0.06-0.48,0.09-0.82,0.09h-3.13l5.02-6.09
			c0.13-0.18,0.26-0.31,0.39-0.41c0.13-0.1,0.26-0.17,0.41-0.22c0.15-0.05,0.32-0.08,0.51-0.1c0.19-0.01,0.41-0.02,0.67-0.02H343.46
			z M337.13,91.72h-4.75V59.83h4.75V91.72z"/>
		<path class="st0" d="M370.4,91.72h-3.64c-0.41,0-0.76-0.1-1.02-0.31c-0.27-0.21-0.46-0.47-0.58-0.8l-2.82-7.4h-14.06l-2.82,7.4
			c-0.1,0.28-0.3,0.54-0.58,0.77c-0.28,0.23-0.62,0.34-1.02,0.34h-3.64l12.7-31.89h4.78L370.4,91.72z M361.05,79.84l-4.73-12.37
			c-0.34-0.84-0.68-1.91-1.02-3.2c-0.16,0.64-0.33,1.23-0.5,1.78c-0.17,0.55-0.34,1.04-0.5,1.47l-4.71,12.33H361.05z"/>
	</g>
	<g>
		<path class="st0" d="M169.53,116.14c0,2.43-0.37,4.61-1.1,6.55c-0.73,1.94-1.77,3.59-3.1,4.95c-1.33,1.36-2.93,2.41-4.8,3.13
			c-1.87,0.73-3.92,1.09-6.17,1.09h-11.62v-31.43h11.62c2.25,0,4.31,0.36,6.17,1.09c1.87,0.73,3.47,1.77,4.8,3.13
			c1.33,1.36,2.37,3.01,3.1,4.95C169.17,111.55,169.53,113.73,169.53,116.14z M167.15,116.14c0-2.19-0.31-4.15-0.92-5.86
			c-0.61-1.72-1.48-3.17-2.61-4.35c-1.12-1.18-2.47-2.09-4.05-2.71c-1.57-0.62-3.31-0.93-5.22-0.93h-9.31v27.74h9.31
			c1.9,0,3.64-0.31,5.22-0.93c1.57-0.62,2.92-1.53,4.05-2.71c1.12-1.18,1.99-2.64,2.61-4.35
			C166.84,120.31,167.15,118.35,167.15,116.14z"/>
		<path class="st0" d="M190.47,131.87h-2.32v-31.43h2.32V131.87z"/>
		<path class="st0" d="M236.52,117.61v11.17c-1.59,1.11-3.28,1.96-5.08,2.55c-1.8,0.59-3.82,0.89-6.07,0.89
			c-2.52,0-4.78-0.38-6.79-1.14c-2.01-0.76-3.72-1.84-5.14-3.24c-1.42-1.4-2.5-3.09-3.26-5.08c-0.76-1.98-1.14-4.19-1.14-6.62
			c0-2.43,0.37-4.63,1.11-6.61c0.74-1.98,1.81-3.66,3.19-5.06c1.39-1.4,3.06-2.48,5.03-3.24c1.96-0.76,4.17-1.14,6.63-1.14
			c1.21,0,2.33,0.08,3.36,0.24c1.03,0.16,1.98,0.4,2.87,0.72c0.88,0.32,1.71,0.71,2.47,1.18c0.76,0.47,1.5,1,2.2,1.61l-0.63,0.98
			c-0.21,0.36-0.52,0.44-0.94,0.24c-0.22-0.09-0.55-0.3-0.97-0.62c-0.42-0.33-1-0.67-1.73-1.02c-0.73-0.36-1.65-0.67-2.73-0.96
			c-1.09-0.28-2.41-0.42-3.97-0.42c-2.07,0-3.94,0.33-5.61,0.98c-1.67,0.65-3.1,1.58-4.27,2.8c-1.18,1.21-2.08,2.69-2.72,4.44
			c-0.64,1.75-0.96,3.71-0.96,5.89c0,2.21,0.32,4.19,0.96,5.95c0.64,1.76,1.56,3.26,2.77,4.49c1.21,1.23,2.67,2.17,4.4,2.82
			c1.72,0.65,3.67,0.98,5.82,0.98c0.94,0,1.82-0.06,2.62-0.18c0.8-0.12,1.57-0.29,2.29-0.5c0.73-0.21,1.43-0.48,2.11-0.8
			c0.68-0.32,1.38-0.68,2.08-1.08v-8.46h-6.09c-0.17,0-0.3-0.05-0.42-0.16s-0.17-0.22-0.17-0.36v-1.24H236.52z"/>
		<path class="st0" d="M257.72,131.87h-2.32v-31.43h2.32V131.87z"/>
		<path class="st0" d="M299.04,102.37h-11.17v29.49h-2.32v-29.49h-11.24v-1.93h24.73V102.37z"/>
		<path class="st0" d="M336.71,131.87h-1.78c-0.21,0-0.38-0.06-0.52-0.17c-0.13-0.11-0.24-0.26-0.31-0.43l-3.73-9.13h-15.63
			l-3.73,9.13c-0.06,0.16-0.16,0.3-0.31,0.42c-0.15,0.12-0.33,0.18-0.54,0.18h-1.75l13.02-31.43h2.27L336.71,131.87z M329.67,120.45
			l-6.48-15.88c-0.22-0.52-0.44-1.14-0.65-1.87c-0.09,0.36-0.19,0.69-0.29,1.01c-0.1,0.32-0.22,0.61-0.34,0.88l-6.48,15.86H329.67z"
			/>
		<path class="st0" d="M370.61,129.94v1.93h-17.38v-31.43h2.32v29.49H370.61z"/>
	</g>
	<linearGradient id="SVGID_1_" gradientUnits="userSpaceOnUse" x1="13.6121" y1="7.0589" x2="122.8434" y2="125.4329">
		<stop  offset="0" style="stop-color:#FFDA00"/>
		<stop  offset="1" style="stop-color:#E8AE00"/>
	</linearGradient>
	<path class="st1" d="M36.61,31.56v7.33c1.83-2.63,3.82-5.07,5.98-7.33H36.61z"/>
	<linearGradient id="SVGID_2_" gradientUnits="userSpaceOnUse" x1="-5.6301" y1="24.8149" x2="103.6012" y2="143.1889">
		<stop  offset="0" style="stop-color:#FFDA00"/>
		<stop  offset="1" style="stop-color:#E8AE00"/>
	</linearGradient>
	<path class="st2" d="M30.11,50.49H17.67v12.62h8.24c0.93-4.1,2.27-8.18,4.03-12.25C29.99,50.74,30.05,50.62,30.11,50.49z"/>
	<linearGradient id="SVGID_3_" gradientUnits="userSpaceOnUse" x1="22.8668" y1="-1.4811" x2="132.0981" y2="116.8929">
		<stop  offset="0" style="stop-color:#FFDA00"/>
		<stop  offset="1" style="stop-color:#E8AE00"/>
	</linearGradient>
	<rect x="36.61" y="13.89" class="st3" width="11.36" height="11.36"/>
	<linearGradient id="SVGID_4_" gradientUnits="userSpaceOnUse" x1="3.8845" y1="16.0351" x2="113.1158" y2="134.4091">
		<stop  offset="0" style="stop-color:#FFDA00"/>
		<stop  offset="1" style="stop-color:#E8AE00"/>
	</linearGradient>
	<rect x="18.94" y="32.82" class="st4" width="11.36" height="11.36"/>
	<linearGradient id="SVGID_5_" gradientUnits="userSpaceOnUse" x1="-16.5101" y1="34.8545" x2="92.7212" y2="153.2285">
		<stop  offset="0" style="stop-color:#FFDA00"/>
		<stop  offset="1" style="stop-color:#E8AE00"/>
	</linearGradient>
	<path class="st5" d="M24.67,70.69h-5.73v11.36h5.64c-0.15-1.72-0.23-3.45-0.23-5.17C24.35,74.81,24.46,72.75,24.67,70.69z"/>
	<linearGradient id="SVGID_6_" gradientUnits="userSpaceOnUse" x1="-15.1505" y1="33.5999" x2="94.0808" y2="151.9739">
		<stop  offset="0" style="stop-color:#FFDA00"/>
		<stop  offset="1" style="stop-color:#E8AE00"/>
	</linearGradient>
	<rect y="50.49" class="st6" width="11.36" height="11.36"/>
	<linearGradient id="SVGID_7_" gradientUnits="userSpaceOnUse" x1="3.1736" y1="16.6912" x2="112.4049" y2="135.0651">
		<stop  offset="0" style="stop-color:#FFDA00"/>
		<stop  offset="1" style="stop-color:#E8AE00"/>
	</linearGradient>
	<rect x="3.79" y="17.67" class="st7" width="7.57" height="7.57"/>
	<linearGradient id="SVGID_8_" gradientUnits="userSpaceOnUse" x1="29.7347" y1="-7.8185" x2="138.966" y2="110.5555">
		<stop  offset="0" style="stop-color:#FFDA00"/>
		<stop  offset="1" style="stop-color:#E8AE00"/>
	</linearGradient>
	<rect x="36.61" class="st8" width="8.84" height="8.84"/>
	<linearGradient id="SVGID_9_" gradientUnits="userSpaceOnUse" x1="12.6925" y1="7.9075" x2="121.9237" y2="126.2815">
		<stop  offset="0" style="stop-color:#FFDA00"/>
		<stop  offset="1" style="stop-color:#E8AE00"/>
	</linearGradient>
	<rect x="20.2" y="16.41" class="st9" width="8.84" height="8.84"/>
	<linearGradient id="SVGID_10_" gradientUnits="userSpaceOnUse" x1="-6.2898" y1="25.4237" x2="102.9414" y2="143.7977">
		<stop  offset="0" style="stop-color:#FFDA00"/>
		<stop  offset="1" style="stop-color:#E8AE00"/>
	</linearGradient>
	<rect x="2.52" y="35.35" class="st10" width="8.84" height="8.84"/>
	<linearGradient id="SVGID_11_" gradientUnits="userSpaceOnUse" x1="5.9191" y1="14.1577" x2="115.1504" y2="132.5317">
		<stop  offset="0" style="stop-color:#FFDA00"/>
		<stop  offset="1" style="stop-color:#E8AE00"/>
	</linearGradient>
	<path class="st11" d="M112.83,99.99h-10.28V75.54c-2.37,1.54-4.77,3-7.22,4.4v20.05H81.86v-13.3c-1.45,0.63-2.92,1.25-4.39,1.83
		c-0.94,0.37-1.88,0.73-2.82,1.08v10.39H61.15v-6.12c-10.49,2.77-21.48,4.44-32.86,4.98c3.88,11.03,10.25,20.04,19.11,27.01
		c11.18,8.79,24.56,13.18,40.16,13.18c6.75,0,13.56-0.82,20.43-2.45l8.03-1.92V65.63c-1.06,0.87-2.12,1.73-3.2,2.57V99.99z"/>
	<g>
		<linearGradient id="SVGID_12_" gradientUnits="userSpaceOnUse" x1="21.7007" y1="-0.405" x2="130.932" y2="117.969">
			<stop  offset="0" style="stop-color:#FFDA00"/>
			<stop  offset="1" style="stop-color:#E8AE00"/>
		</linearGradient>
		<polygon class="st12" points="75.03,57.35 74.99,57.38 75.03,57.38 		"/>
	</g>
	<g>
		<linearGradient id="SVGID_13_" gradientUnits="userSpaceOnUse" x1="21.7007" y1="-0.405" x2="130.932" y2="117.969">
			<stop  offset="0" style="stop-color:#FFDA00"/>
			<stop  offset="1" style="stop-color:#E8AE00"/>
		</linearGradient>
		<polygon class="st13" points="75.03,57.38 75.03,57.35 74.99,57.38 		"/>
		<linearGradient id="SVGID_14_" gradientUnits="userSpaceOnUse" x1="21.7442" y1="-0.4451" x2="130.9755" y2="117.9289">
			<stop  offset="0" style="stop-color:#FFDA00"/>
			<stop  offset="1" style="stop-color:#E8AE00"/>
		</linearGradient>
		<path class="st14" d="M89.13,12.62c-13.39,0-25.26,3.32-35.62,9.95c-4.02,2.57-7.65,5.57-10.92,8.98h6.64v12.62H36.61v-5.3
			c-2.47,3.54-4.63,7.4-6.5,11.61h0.19v12.62h-4.39c-0.57,2.52-0.99,5.04-1.24,7.57h5.63v11.36h-5.72c0.18,2.08,0.47,4.17,0.87,6.25
			c12.75-1.64,24.69-4.28,35.7-7.87v-1.87V65.72l13.49-8.13v17.76c2.45-1.06,4.86-2.18,7.22-3.36V57.38v-4.14l13.47-8.12v3.6v15.58
			c2.47-1.6,4.88-3.28,7.22-5.03V48.72l-0.03-1.33v-6.61l10.31-6.21v8.43l3.2-0.79V16.99C107.41,14.08,98.44,12.62,89.13,12.62z
			 M50.49,64.38H36.61V50.49h13.89V64.38z M66.9,44.18H55.54V32.82H66.9V44.18z M75.03,57.38h-0.05l0.05-0.03V57.38z"/>
	</g>
	<g>
		<linearGradient id="SVGID_15_" gradientUnits="userSpaceOnUse" x1="13.9427" y1="6.7538" x2="123.174" y2="125.1278">
			<stop  offset="0" style="stop-color:#FFDA00"/>
			<stop  offset="1" style="stop-color:#E8AE00"/>
		</linearGradient>
		<path class="st15" d="M130.01,45.48l-0.85-0.83c-0.89-0.88-2.78-1.3-4.21-0.95l-0.2,0.05l0-0.08c-0.03,0.03-0.06,0.07-0.09,0.1
			l-14.98,3.72c-0.51,0.13-0.66,0.48-0.34,0.79l2.93,2.89c0.32,0.31,0.98,0.46,1.49,0.34l4.69-1.16
			C93.4,75.14,59.09,89.23,15.85,92.97c-1.53,0.13-1.45,2.4,0.09,2.43c41.96,0.93,78.39-12.88,106.94-40.79l-1.56,4.33
			c-0.18,0.45-0.06,1.07,0.25,1.38l2.93,2.89c0.32,0.31,0.72,0.2,0.89-0.25l5.33-13.58C131.23,48.1,130.91,46.36,130.01,45.48z"/>
	</g>
</g>
</svg>
