<?xml version="1.0" encoding="utf-8"?>
<!-- Generator: Adobe Illustrator 25.0.1, SVG Export Plug-In . SVG Version: 6.00 Build 0)  -->
<svg version="1.1" id="Capa_1" xmlns="http://www.w3.org/2000/svg" xmlns:xlink="http://www.w3.org/1999/xlink" x="0px" y="0px"
	 viewBox="0 0 369.47 138.62" style="enable-background:new 0 0 369.47 138.62;" xml:space="preserve">
<style type="text/css">
	.st0{fill:#4A4A49;}
	.st1{fill:url(#SVGID_1_);}
	.st2{fill:url(#SVGID_2_);}
	.st3{fill:url(#SVGID_3_);}
	.st4{fill:url(#SVGID_4_);}
	.st5{fill:url(#SVGID_5_);}
	.st6{fill:url(#SVGID_6_);}
	.st7{fill:url(#SVGID_7_);}
	.st8{fill:url(#SVGID_8_);}
	.st9{fill:url(#SVGID_9_);}
	.st10{fill:url(#SVGID_10_);}
	.st11{fill:url(#SVGID_11_);}
	.st12{fill:url(#SVGID_12_);}
	.st13{fill:url(#SVGID_13_);}
	.st14{fill:url(#SVGID_14_);}
	.st15{fill:url(#SVGID_15_);}
</style>
<g>
	<g>
		<path class="st0" d="M160.5,48.51v3.96h-18.2V20.68h4.72v27.83H160.5z"/>
		<path class="st0" d="M191.32,52.47h-3.63c-0.41,0-0.75-0.1-1.02-0.31c-0.27-0.21-0.46-0.47-0.58-0.8l-2.81-7.37h-14.02l-2.81,7.37
			c-0.1,0.28-0.3,0.54-0.58,0.76c-0.28,0.23-0.62,0.34-1.02,0.34h-3.63l12.66-31.79h4.76L191.32,52.47z M182,40.63l-4.72-12.33
			c-0.34-0.84-0.68-1.9-1.02-3.19c-0.16,0.63-0.33,1.23-0.5,1.77c-0.17,0.55-0.34,1.03-0.5,1.46l-4.69,12.29H182z"/>
	</g>
	<g>
		<path class="st0" d="M164.5,84.62c0.27,0,0.49,0.1,0.69,0.31l1.86,2.04c-1.3,1.54-2.88,2.72-4.75,3.56
			c-1.87,0.84-4.11,1.26-6.74,1.26c-2.3,0-4.39-0.4-6.25-1.2c-1.87-0.8-3.46-1.91-4.78-3.34c-1.32-1.43-2.34-3.14-3.07-5.14
			c-0.72-1.99-1.08-4.18-1.08-6.58c0-2.39,0.38-4.58,1.14-6.58c0.76-1.99,1.83-3.7,3.2-5.14c1.37-1.43,3.01-2.55,4.93-3.34
			c1.91-0.8,4.03-1.2,6.34-1.2c2.26,0,4.27,0.37,6.02,1.11c1.76,0.74,3.28,1.72,4.58,2.94l-1.55,2.19c-0.1,0.16-0.23,0.3-0.39,0.4
			c-0.15,0.1-0.36,0.15-0.61,0.15c-0.28,0-0.61-0.14-0.99-0.42c-0.38-0.28-0.87-0.59-1.48-0.94c-0.61-0.35-1.37-0.66-2.27-0.94
			c-0.9-0.28-2.02-0.42-3.37-0.42c-1.58,0-3.03,0.28-4.34,0.83c-1.31,0.55-2.45,1.35-3.4,2.39c-0.95,1.04-1.69,2.32-2.21,3.83
			c-0.52,1.51-0.79,3.22-0.79,5.13c0,1.93,0.27,3.65,0.82,5.16c0.55,1.51,1.3,2.78,2.26,3.83c0.96,1.05,2.09,1.85,3.39,2.39
			c1.3,0.55,2.7,0.82,4.21,0.82c0.91,0,1.74-0.06,2.47-0.17c0.73-0.11,1.4-0.28,2.02-0.5c0.61-0.22,1.19-0.51,1.74-0.85
			c0.55-0.35,1.08-0.76,1.62-1.25c0.12-0.1,0.24-0.19,0.38-0.25S164.36,84.62,164.5,84.62z"/>
		<path class="st0" d="M199.93,75.54c0,2.38-0.38,4.56-1.14,6.54c-0.76,1.99-1.83,3.7-3.22,5.14c-1.39,1.44-3.05,2.56-4.98,3.35
			c-1.93,0.8-4.08,1.2-6.44,1.2c-2.35,0-4.49-0.4-6.43-1.2c-1.94-0.8-3.6-1.92-4.98-3.35s-2.45-3.15-3.22-5.14
			c-0.77-1.99-1.15-4.17-1.15-6.54c0-2.36,0.38-4.54,1.15-6.53c0.77-1.99,1.84-3.71,3.22-5.15c1.38-1.44,3.04-2.56,4.98-3.37
			c1.94-0.8,4.08-1.21,6.43-1.21c2.36,0,4.51,0.4,6.44,1.21c1.93,0.8,3.59,1.93,4.98,3.37c1.39,1.44,2.46,3.16,3.22,5.15
			C199.55,71,199.93,73.18,199.93,75.54z M195.1,75.54c0-1.89-0.26-3.59-0.77-5.09c-0.52-1.51-1.25-2.78-2.2-3.83
			c-0.95-1.05-2.1-1.85-3.45-2.41c-1.35-0.56-2.86-0.84-4.53-0.84c-1.67,0-3.18,0.28-4.53,0.84c-1.35,0.56-2.51,1.37-3.47,2.41
			c-0.96,1.05-1.7,2.32-2.21,3.83c-0.52,1.51-0.78,3.2-0.78,5.09c0,1.9,0.26,3.61,0.78,5.1c0.52,1.5,1.25,2.77,2.21,3.82
			c0.96,1.05,2.11,1.85,3.47,2.4c1.35,0.55,2.86,0.83,4.53,0.83c1.67,0,3.18-0.28,4.53-0.83c1.35-0.55,2.5-1.35,3.45-2.4
			c0.95-1.05,1.69-2.32,2.2-3.82C194.85,79.15,195.1,77.44,195.1,75.54z"/>
		<path class="st0" d="M238.39,59.64v31.79h-4.12V68.81c0-0.34,0.01-0.7,0.03-1.08c0.02-0.38,0.05-0.78,0.08-1.17L223.8,85.97
			c-0.37,0.72-0.94,1.08-1.7,1.08h-0.66c-0.77,0-1.33-0.36-1.68-1.08l-10.78-19.48c0.09,0.83,0.13,1.6,0.13,2.32v22.63h-4.14V59.64
			h3.5c0.41,0,0.73,0.04,0.96,0.12c0.23,0.08,0.45,0.31,0.65,0.68l10.63,19.04c0.21,0.38,0.4,0.79,0.58,1.22
			c0.18,0.43,0.35,0.86,0.51,1.28c0.31-0.87,0.67-1.71,1.08-2.52l10.43-19.02c0.19-0.37,0.4-0.59,0.63-0.68
			c0.23-0.08,0.55-0.12,0.96-0.12H238.39z"/>
		<path class="st0" d="M255,59.64c2.04,0,3.81,0.24,5.31,0.71c1.51,0.47,2.75,1.14,3.74,2c0.99,0.86,1.72,1.91,2.2,3.13
			c0.48,1.23,0.72,2.58,0.72,4.07c0,1.49-0.26,2.86-0.78,4.11c-0.52,1.25-1.28,2.32-2.28,3.22c-1,0.9-2.26,1.6-3.75,2.09
			c-1.5,0.49-3.22,0.74-5.17,0.74h-4.92v11.71h-4.72V59.64H255z M255,76c1.2,0,2.25-0.15,3.16-0.47c0.91-0.31,1.67-0.75,2.28-1.32
			c0.61-0.57,1.07-1.25,1.38-2.04c0.31-0.79,0.46-1.66,0.46-2.62c0-1.93-0.6-3.45-1.8-4.56c-1.2-1.11-3.03-1.66-5.48-1.66h-4.92V76
			H255z"/>
		<path class="st0" d="M295.27,91.44h-3.63c-0.41,0-0.75-0.1-1.02-0.31c-0.27-0.21-0.46-0.47-0.58-0.8l-2.81-7.37h-14.02l-2.81,7.37
			c-0.1,0.28-0.3,0.54-0.58,0.76c-0.28,0.23-0.62,0.34-1.02,0.34h-3.63l12.66-31.79h4.76L295.27,91.44z M285.95,79.59l-4.72-12.33
			c-0.34-0.84-0.68-1.9-1.02-3.19c-0.16,0.63-0.33,1.23-0.5,1.77c-0.17,0.55-0.34,1.03-0.5,1.46l-4.69,12.29H285.95z"/>
		<path class="st0" d="M324.39,59.64v31.79h-2.39c-0.37,0-0.68-0.07-0.92-0.2c-0.24-0.13-0.49-0.35-0.74-0.64l-17.96-23.23
			c0.03,0.4,0.06,0.79,0.08,1.17c0.02,0.38,0.03,0.75,0.03,1.08v21.81h-4.14V59.64h2.44c0.41,0,0.72,0.05,0.93,0.14
			c0.21,0.1,0.44,0.31,0.69,0.65l18,23.25c-0.04-0.43-0.08-0.84-0.1-1.25c-0.02-0.41-0.03-0.79-0.03-1.14V59.64H324.39z
			 M314.44,54.42c0.34,0,0.63-0.06,0.89-0.19c0.25-0.13,0.46-0.29,0.63-0.5c0.17-0.21,0.3-0.44,0.39-0.7
			c0.09-0.26,0.13-0.52,0.13-0.79h2.63c0,0.66-0.09,1.3-0.28,1.9c-0.18,0.61-0.45,1.14-0.81,1.6c-0.35,0.47-0.79,0.84-1.31,1.12
			c-0.52,0.28-1.11,0.42-1.79,0.42c-0.68,0-1.28-0.12-1.82-0.35c-0.53-0.24-1.02-0.5-1.47-0.79c-0.45-0.29-0.87-0.55-1.27-0.8
			c-0.4-0.24-0.8-0.37-1.2-0.37c-0.34,0-0.63,0.07-0.89,0.2c-0.25,0.13-0.46,0.31-0.62,0.52c-0.16,0.21-0.29,0.45-0.38,0.72
			c-0.09,0.27-0.13,0.52-0.13,0.78h-2.68c0-0.66,0.09-1.3,0.28-1.92c0.18-0.61,0.46-1.15,0.82-1.63c0.36-0.47,0.8-0.85,1.32-1.13
			c0.52-0.28,1.11-0.42,1.77-0.42c0.69,0,1.31,0.12,1.84,0.37c0.53,0.24,1.02,0.51,1.47,0.8c0.45,0.29,0.87,0.55,1.26,0.79
			C313.63,54.3,314.03,54.42,314.44,54.42z"/>
		<path class="st0" d="M342.41,50.39l-7.22,6.33c-0.25,0.21-0.48,0.34-0.69,0.4c-0.21,0.06-0.48,0.09-0.82,0.09h-3.12l5-6.07
			c0.13-0.18,0.26-0.31,0.39-0.41c0.13-0.1,0.26-0.17,0.41-0.22c0.15-0.05,0.32-0.08,0.51-0.1c0.19-0.01,0.41-0.02,0.66-0.02H342.41
			z M336.1,91.44h-4.74V59.64h4.74V91.44z"/>
		<path class="st0" d="M369.26,91.44h-3.63c-0.41,0-0.75-0.1-1.02-0.31c-0.27-0.21-0.46-0.47-0.58-0.8l-2.81-7.37h-14.02l-2.81,7.37
			c-0.1,0.28-0.3,0.54-0.58,0.76c-0.28,0.23-0.62,0.34-1.02,0.34h-3.63l12.66-31.79h4.76L369.26,91.44z M359.94,79.59l-4.72-12.33
			c-0.34-0.84-0.68-1.9-1.02-3.19c-0.16,0.63-0.33,1.23-0.5,1.77c-0.17,0.55-0.34,1.03-0.5,1.46l-4.69,12.29H359.94z"/>
	</g>
	<g>
		<path class="st0" d="M169.01,115.79c0,2.42-0.37,4.6-1.1,6.53c-0.73,1.93-1.76,3.58-3.09,4.94c-1.33,1.36-2.93,2.4-4.79,3.12
			c-1.86,0.72-3.91,1.08-6.15,1.08H142.3v-31.33h11.59c2.24,0,4.29,0.36,6.15,1.08c1.86,0.72,3.46,1.76,4.79,3.12
			c1.33,1.36,2.36,3,3.09,4.94C168.65,111.21,169.01,113.38,169.01,115.79z M166.64,115.79c0-2.18-0.31-4.13-0.92-5.85
			c-0.61-1.71-1.48-3.16-2.6-4.34c-1.12-1.18-2.47-2.08-4.03-2.7c-1.57-0.62-3.3-0.93-5.2-0.93h-9.28v27.65h9.28
			c1.9,0,3.63-0.31,5.2-0.93c1.57-0.62,2.91-1.52,4.03-2.7c1.12-1.18,1.99-2.63,2.6-4.34C166.33,119.94,166.64,117.99,166.64,115.79
			z"/>
		<path class="st0" d="M189.88,131.46h-2.31v-31.33h2.31V131.46z"/>
		<path class="st0" d="M235.79,117.25v11.14c-1.58,1.11-3.27,1.96-5.07,2.55c-1.79,0.59-3.81,0.89-6.05,0.89
			c-2.51,0-4.77-0.38-6.77-1.14c-2-0.76-3.71-1.84-5.12-3.23s-2.5-3.08-3.25-5.06c-0.75-1.98-1.13-4.18-1.13-6.6
			c0-2.42,0.37-4.62,1.11-6.59c0.74-1.97,1.8-3.65,3.18-5.05c1.38-1.39,3.05-2.47,5.01-3.23c1.96-0.76,4.16-1.14,6.61-1.14
			c1.21,0,2.33,0.08,3.35,0.24c1.02,0.16,1.98,0.4,2.86,0.72c0.88,0.32,1.7,0.71,2.47,1.17c0.76,0.46,1.49,1,2.2,1.61l-0.63,0.97
			c-0.21,0.35-0.52,0.44-0.94,0.24c-0.22-0.09-0.55-0.3-0.96-0.62c-0.42-0.32-0.99-0.66-1.73-1.02c-0.73-0.35-1.64-0.67-2.72-0.95
			c-1.08-0.28-2.4-0.42-3.96-0.42c-2.06,0-3.93,0.33-5.59,0.97c-1.67,0.65-3.09,1.58-4.26,2.79c-1.17,1.21-2.08,2.69-2.71,4.43
			c-0.64,1.74-0.95,3.7-0.95,5.87c0,2.2,0.32,4.18,0.95,5.93c0.63,1.76,1.55,3.25,2.76,4.47c1.2,1.23,2.66,2.16,4.38,2.81
			c1.72,0.65,3.65,0.97,5.81,0.97c0.94,0,1.81-0.06,2.61-0.18c0.8-0.12,1.56-0.28,2.29-0.5c0.72-0.21,1.43-0.48,2.11-0.8
			c0.68-0.32,1.37-0.68,2.07-1.07V119h-6.07c-0.16,0-0.3-0.05-0.41-0.15c-0.11-0.1-0.17-0.22-0.17-0.35v-1.24H235.79z"/>
		<path class="st0" d="M256.93,131.46h-2.31v-31.33h2.31V131.46z"/>
		<path class="st0" d="M298.13,102.06h-11.14v29.4h-2.31v-29.4h-11.21v-1.93h24.66V102.06z"/>
		<path class="st0" d="M335.67,131.46h-1.77c-0.21,0-0.38-0.06-0.52-0.17c-0.13-0.11-0.24-0.25-0.31-0.43l-3.72-9.1h-15.58
			l-3.72,9.1c-0.06,0.16-0.16,0.3-0.31,0.42c-0.15,0.12-0.33,0.18-0.54,0.18h-1.75l12.98-31.33h2.26L335.67,131.46z M328.66,120.08
			l-6.46-15.83c-0.22-0.52-0.44-1.14-0.65-1.86c-0.09,0.35-0.19,0.69-0.29,1.01c-0.1,0.32-0.22,0.61-0.34,0.87l-6.46,15.81H328.66z"
			/>
		<path class="st0" d="M369.47,129.54v1.93h-17.33v-31.33h2.31v29.4H369.47z"/>
	</g>
	<linearGradient id="SVGID_1_" gradientUnits="userSpaceOnUse" x1="13.5703" y1="7.0372" x2="122.4665" y2="125.0481">
		<stop  offset="0" style="stop-color:#FFDA00"/>
		<stop  offset="1" style="stop-color:#E8AE00"/>
	</linearGradient>
	<path class="st1" d="M36.5,31.46v7.31c1.82-2.62,3.81-5.05,5.97-7.31H36.5z"/>
	<linearGradient id="SVGID_2_" gradientUnits="userSpaceOnUse" x1="-5.6128" y1="24.7388" x2="103.2834" y2="142.7496">
		<stop  offset="0" style="stop-color:#FFDA00"/>
		<stop  offset="1" style="stop-color:#E8AE00"/>
	</linearGradient>
	<path class="st2" d="M30.01,50.34h-12.4v12.58h8.21c0.93-4.08,2.26-8.16,4.02-12.22C29.9,50.58,29.96,50.46,30.01,50.34z"/>
	<linearGradient id="SVGID_3_" gradientUnits="userSpaceOnUse" x1="22.7967" y1="-1.4765" x2="131.6929" y2="116.5344">
		<stop  offset="0" style="stop-color:#FFDA00"/>
		<stop  offset="1" style="stop-color:#E8AE00"/>
	</linearGradient>
	<rect x="36.5" y="13.84" class="st3" width="11.33" height="11.33"/>
	<linearGradient id="SVGID_4_" gradientUnits="userSpaceOnUse" x1="3.8726" y1="15.986" x2="112.7688" y2="133.9968">
		<stop  offset="0" style="stop-color:#FFDA00"/>
		<stop  offset="1" style="stop-color:#E8AE00"/>
	</linearGradient>
	<rect x="18.88" y="32.72" class="st4" width="11.33" height="11.33"/>
	<linearGradient id="SVGID_5_" gradientUnits="userSpaceOnUse" x1="-16.4594" y1="34.7476" x2="92.4368" y2="152.7585">
		<stop  offset="0" style="stop-color:#FFDA00"/>
		<stop  offset="1" style="stop-color:#E8AE00"/>
	</linearGradient>
	<path class="st5" d="M24.59,70.47h-5.71V81.8h5.62c-0.15-1.72-0.23-3.44-0.23-5.15C24.28,74.59,24.38,72.53,24.59,70.47z"/>
	<linearGradient id="SVGID_6_" gradientUnits="userSpaceOnUse" x1="-15.104" y1="33.4969" x2="93.7922" y2="151.5077">
		<stop  offset="0" style="stop-color:#FFDA00"/>
		<stop  offset="1" style="stop-color:#E8AE00"/>
	</linearGradient>
	<rect y="50.34" class="st6" width="11.33" height="11.33"/>
	<linearGradient id="SVGID_7_" gradientUnits="userSpaceOnUse" x1="3.1639" y1="16.6399" x2="112.0601" y2="134.6508">
		<stop  offset="0" style="stop-color:#FFDA00"/>
		<stop  offset="1" style="stop-color:#E8AE00"/>
	</linearGradient>
	<rect x="3.78" y="17.62" class="st7" width="7.55" height="7.55"/>
	<linearGradient id="SVGID_8_" gradientUnits="userSpaceOnUse" x1="29.6435" y1="-7.7945" x2="138.5397" y2="110.2163">
		<stop  offset="0" style="stop-color:#FFDA00"/>
		<stop  offset="1" style="stop-color:#E8AE00"/>
	</linearGradient>
	<rect x="36.5" class="st8" width="8.81" height="8.81"/>
	<linearGradient id="SVGID_9_" gradientUnits="userSpaceOnUse" x1="12.6535" y1="7.8832" x2="121.5497" y2="125.8941">
		<stop  offset="0" style="stop-color:#FFDA00"/>
		<stop  offset="1" style="stop-color:#E8AE00"/>
	</linearGradient>
	<rect x="20.14" y="16.36" class="st9" width="8.81" height="8.81"/>
	<linearGradient id="SVGID_10_" gradientUnits="userSpaceOnUse" x1="-6.2705" y1="25.3457" x2="102.6256" y2="143.3565">
		<stop  offset="0" style="stop-color:#FFDA00"/>
		<stop  offset="1" style="stop-color:#E8AE00"/>
	</linearGradient>
	<rect x="2.52" y="35.24" class="st10" width="8.81" height="8.81"/>
	<linearGradient id="SVGID_11_" gradientUnits="userSpaceOnUse" x1="5.9009" y1="14.1143" x2="114.7971" y2="132.1251">
		<stop  offset="0" style="stop-color:#FFDA00"/>
		<stop  offset="1" style="stop-color:#E8AE00"/>
	</linearGradient>
	<path class="st11" d="M112.48,99.68h-10.24V75.31c-2.36,1.53-4.76,2.99-7.2,4.38v19.99H81.61V86.42c-1.45,0.63-2.91,1.25-4.38,1.83
		c-0.93,0.37-1.87,0.72-2.82,1.07v10.36H60.96v-6.1C50.5,96.34,39.55,98,28.2,98.55c3.87,11,10.22,19.98,19.05,26.93
		c11.14,8.76,24.49,13.14,40.04,13.14c6.73,0,13.52-0.81,20.37-2.44l8.01-1.91V65.43c-1.05,0.87-2.12,1.73-3.19,2.56V99.68z"/>
	<g>
		<linearGradient id="SVGID_12_" gradientUnits="userSpaceOnUse" x1="21.6342" y1="-0.4038" x2="130.5304" y2="117.6071">
			<stop  offset="0" style="stop-color:#FFDA00"/>
			<stop  offset="1" style="stop-color:#E8AE00"/>
		</linearGradient>
		<polygon class="st12" points="74.8,57.18 74.76,57.21 74.8,57.21 		"/>
	</g>
	<g>
		<linearGradient id="SVGID_13_" gradientUnits="userSpaceOnUse" x1="21.6342" y1="-0.4038" x2="130.5304" y2="117.6071">
			<stop  offset="0" style="stop-color:#FFDA00"/>
			<stop  offset="1" style="stop-color:#E8AE00"/>
		</linearGradient>
		<polygon class="st13" points="74.8,57.21 74.8,57.18 74.76,57.21 		"/>
		<linearGradient id="SVGID_14_" gradientUnits="userSpaceOnUse" x1="21.6775" y1="-0.4437" x2="130.5737" y2="117.5671">
			<stop  offset="0" style="stop-color:#FFDA00"/>
			<stop  offset="1" style="stop-color:#E8AE00"/>
		</linearGradient>
		<path class="st14" d="M88.86,12.58c-13.35,0-25.18,3.31-35.51,9.92c-4.01,2.56-7.63,5.55-10.89,8.95h6.62v12.58H36.5v-5.28
			c-2.46,3.53-4.62,7.38-6.48,11.57h0.19v12.58h-4.37c-0.57,2.51-0.98,5.03-1.24,7.55h5.61V81.8h-5.7c0.18,2.08,0.47,4.16,0.87,6.23
			c12.71-1.64,24.62-4.27,35.59-7.85v-1.86v-12.8l13.45-8.11v17.7c2.45-1.06,4.84-2.17,7.2-3.35V57.21v-4.13l13.43-8.1v3.59v15.54
			c2.46-1.6,4.86-3.27,7.2-5.01V48.57l-0.03-1.32v-6.59l10.27-6.19v8.4l3.19-0.79V16.94C107.08,14.04,98.14,12.58,88.86,12.58z
			 M50.34,64.18H36.5V50.34h13.84V64.18z M66.7,44.05H55.37V32.72H66.7V44.05z M74.8,57.21h-0.05l0.05-0.03V57.21z"/>
	</g>
	<g>
		<linearGradient id="SVGID_15_" gradientUnits="userSpaceOnUse" x1="13.8999" y1="6.7331" x2="122.7961" y2="124.744">
			<stop  offset="0" style="stop-color:#FFDA00"/>
			<stop  offset="1" style="stop-color:#E8AE00"/>
		</linearGradient>
		<path class="st15" d="M129.62,45.34l-0.84-0.83c-0.89-0.88-2.77-1.3-4.19-0.95l-0.2,0.05l0-0.08c-0.03,0.03-0.06,0.07-0.09,0.1
			l-14.93,3.71c-0.5,0.13-0.66,0.48-0.34,0.79l2.92,2.88c0.31,0.31,0.98,0.46,1.48,0.33l4.68-1.16
			C93.11,74.91,58.91,88.96,15.8,92.69c-1.52,0.13-1.44,2.39,0.09,2.42c41.83,0.93,78.15-12.84,106.62-40.66l-1.55,4.32
			c-0.18,0.45-0.06,1.06,0.25,1.37l2.92,2.88c0.31,0.31,0.71,0.2,0.89-0.25l5.31-13.54C130.82,47.96,130.5,46.22,129.62,45.34z"/>
	</g>
</g>
</svg>
