<?xml version="1.0" encoding="utf-8"?>
<!-- Generator: Adobe Illustrator 16.0.0, SVG Export Plug-In . SVG Version: 6.00 Build 0)  -->
<!DOCTYPE svg PUBLIC "-//W3C//DTD SVG 1.1//EN" "http://www.w3.org/Graphics/SVG/1.1/DTD/svg11.dtd">
<svg version="1.1" id="Capa_1" xmlns="http://www.w3.org/2000/svg" xmlns:xlink="http://www.w3.org/1999/xlink" x="0px" y="0px"
	 width="54.25px" height="62px" viewBox="0 0 54.25 62" enable-background="new 0 0 54.25 62" xml:space="preserve">
<path fill="#E1E4E6" d="M11.625,0C9.494,0,7.75,1.744,7.75,3.875v54.25C7.75,60.256,9.494,62,11.625,62h38.75
	c2.131,0,3.875-1.744,3.875-3.875V15.5L38.75,0H11.625z"/>
<path fill="#AFB5BB" d="M42.625,15.5H54.25L38.75,0v11.625C38.75,13.756,40.494,15.5,42.625,15.5z"/>
<path fill="#C8CFD6" d="M54.25,27.125L42.625,15.5H54.25V27.125z"/>
<path fill="#1F6D42" d="M46.5,50.825c0,1.065-0.872,1.938-1.938,1.938H1.938C0.872,52.764,0,51.891,0,50.825V31.451
	c0-1.065,0.872-1.938,1.938-1.938h42.625c1.065,0,1.938,0.872,1.938,1.938L46.5,50.825L46.5,50.825z"/>
<path fill="#C8CFD6" d="M44.563,52.764H7.75v1.938h36.813c1.065,0,1.938-0.872,1.938-1.938v-1.938
	C46.5,51.891,45.628,52.764,44.563,52.764z"/>
<path fill="#FFFFFF" d="M13.49,39.512l2.697-3.377c0.804-1.053,2.37,0.296,1.488,1.302c-0.928,1.103-1.904,2.295-2.836,3.517
	L18,44.887c0.851,1.162-0.853,2.277-1.689,1.132l-2.85-3.656l-2.804,3.734C9.867,47.226,8.115,45.955,9,44.901l3.114-3.95
	c-0.977-1.224-1.922-2.414-2.866-3.517c-0.977-1.162,0.837-2.354,1.548-1.269L13.49,39.512z"/>
<path fill="#FFFFFF" d="M20.577,36.716c0-0.512,0.434-0.944,0.977-0.944c0.496,0,0.914,0.437,0.914,0.944v7.763h4.214
	c1.519,0,1.551,2.026,0,2.026h-5.125c-0.543,0-0.977-0.385-0.977-0.944v-8.845H20.577z"/>
<path fill="#FFFFFF" d="M29.915,38.183c0.354-3.004,4.894-3.545,7.033-1.9c1.054,0.851-0.063,2.197-0.992,1.517
	c-1.147-0.729-3.75-1.067-4.074,0.541c-0.419,2.542,6.319,1.087,6.211,5.206c-0.108,3.936-5.809,4.028-7.946,2.262
	c-0.513-0.416-0.496-1.097-0.217-1.518c0.401-0.4,0.85-0.541,1.379-0.107c1.27,0.866,4.539,1.52,4.771-0.685
	C35.878,41.205,29.436,42.585,29.915,38.183z"/>
</svg>
