<?xml version="1.0" encoding="utf-8"?>
<!-- Generator: Adobe Illustrator 16.0.0, SVG Export Plug-In . SVG Version: 6.00 Build 0)  -->
<!DOCTYPE svg PUBLIC "-//W3C//DTD SVG 1.1//EN" "http://www.w3.org/Graphics/SVG/1.1/DTD/svg11.dtd">
<svg version="1.1" id="Capa_1" xmlns="http://www.w3.org/2000/svg" xmlns:xlink="http://www.w3.org/1999/xlink" x="0px" y="0px"
	 width="883.862px" height="325.445px" viewBox="0 0 883.862 325.445" enable-background="new 0 0 883.862 325.445"
	 xml:space="preserve">
<g>
	<polygon fill="#FFFFFF" points="349.941,61.895 395.395,61.895 395.395,126.896 448.402,126.896 448.402,61.895 493.854,61.895 
		493.854,232.312 448.402,232.312 448.402,161.075 395.395,161.075 395.395,232.312 349.941,232.312 	"/>
	<path fill="#FFFFFF" d="M670.807,65.733l-3.959,35.379c-6.955-3.916-14.231-6.855-21.826-8.814
		c-7.596-1.959-15.392-2.939-23.386-2.939c-18.63,0-33.322,5.157-44.074,15.471c-10.754,10.313-16.129,24.387-16.129,42.215
		c0,17.191,4.797,30.864,14.392,41.014c9.594,10.154,22.505,15.23,38.735,15.23c3.437,0,6.597-0.158,9.475-0.477
		c2.879-0.318,5.596-0.801,8.155-1.443v-35.617h-26.264v-32.139h68.479v94.983c-8.955,2.559-18.271,4.477-27.943,5.756
		c-9.675,1.277-19.59,1.918-29.743,1.918c-33.18,0-58.385-7.473-75.613-22.426c-17.229-14.949-25.844-36.775-25.844-65.479
		c0-28.703,8.734-51.03,26.203-66.98c17.469-15.951,41.994-23.925,73.575-23.925c9.434,0,18.809,0.7,28.124,2.099
		C652.477,60.956,661.691,63.016,670.807,65.733"/>
	<path fill="#FFFFFF" d="M750.558,61.895h54.807l64.52,170.417h-48.569l-12.113-36.096h-65.6l-12.712,36.096h-44.973L750.558,61.895
		z M777.062,99.913l-22.067,63.921h43.414L777.062,99.913z"/>
	<path fill="#FFFFFF" d="M780.412,242.269h16.89v4.338h-7.207v20.047h-4.985v-20.047h-7.208v-1.721
		C777.901,243.488,779.014,242.269,780.412,242.269"/>
	<path fill="#FFFFFF" d="M799.741,244.886c0-1.686,0.824-2.582,2.511-2.617h15.132v4.232h-12.73v5.234h9.504v1.613
		c0.036,1.686-0.826,2.51-2.582,2.51h-6.922v6.313h12.73v4.482h-17.643V244.886z"/>
	<path fill="#FFFFFF" d="M834.274,242.269l8.75,24.385h-5.271l-1.613-4.984h-9.433l-1.612,4.984h-5.344l8.141-22.771
		c0.358-1.078,1.146-1.613,2.366-1.613H834.274z M828.034,257.544h6.707l-3.371-10.363L828.034,257.544z"/>
	<path fill="#FFFFFF" d="M847.939,242.269h4.839l4.914,18.576l4.77-18.576h7.424v24.385h-4.698v-19.688l-4.985,19.688h-5.093
		l-4.984-19.688v19.688h-4.697v-21.768C845.428,243.488,846.54,242.269,847.939,242.269"/>
	<polygon fill="#8BC7F1" points="168.939,320.298 296.148,232.998 322.585,54.647 303.405,48.679 168.909,5.146 13.977,54.055 
		34.95,232.076 	"/>
	<polygon fill="#FFFFFF" points="97.508,198.585 148.669,231.685 147.44,206.167 126.04,192.916 124.261,172.89 168.281,198.654 
		168.682,190.539 115.846,159.621 119.184,197.142 140.429,210.3 140.798,218.013 104.356,194.433 99.067,137.658 168.682,172.957 
		168.682,164.878 90.682,125.331 	"/>
	<polygon fill="#FFFFFF" points="158.936,92.485 221.982,117.323 229.03,112.357 178.512,92.456 190.62,87.641 238.471,105.739 
		247.009,101.267 190.554,79.914 	"/>
	<path fill="#FFFFFF" d="M210.666,180.71l28.87-16.892l3.206-36.73l-29.147,13.815L210.666,180.71z M220.471,145.617l14.002-6.637
		l-1.789,20.5l-13.83,8.094L220.471,145.617z"/>
	<path fill="#FFFFFF" d="M168.909,5.146L13.977,54.056l20.779,176.356l0.194,1.666l133.989,88.221l125.916-86.416l1.293-0.887
		l26.437-178.348L168.909,5.146z M279.594,81.068L172.499,46.572V13.871L310.73,58.398L279.594,81.068z M72.147,216.468
		l93.148,61.334v31.469L45.438,230.357L72.147,216.468z M172.499,277.523l40.499-27.801l3.613-46.76l12.673-6.764l-5.122,46.857
		l36.271-25.832l25.523,14.029l-113.457,77.861V277.523z M256.846,210.935l-23.778,16.932l4.859-44.441l-28.197,15.039
		l-3.651,47.266l-37.397,25.672L75.743,210.21L61.204,86.84l45.769-14.748l37.646,14.877l30.876-11.639l-34.476-13.764l27.688-8.648
		l106.477,34.297L256.846,210.935z M57.886,80.342L25.925,57.836l139.37-43.996v32.596L119.51,60.737l36.07,14.402l-10.9,4.108
		l-37.458-14.802L57.886,80.342z M22.422,64.181L53.892,86.34l14.602,123.908L41.3,224.386L22.422,64.181z M290.013,225.263
		l-25.897-14.234l18.238-123.061l31.4-22.862L290.013,225.263z"/>
</g>
</svg>
