<?xml version="1.0" encoding="utf-8"?>
<!-- Generator: Adobe Illustrator 16.0.0, SVG Export Plug-In . SVG Version: 6.00 Build 0)  -->
<!DOCTYPE svg PUBLIC "-//W3C//DTD SVG 1.1//EN" "http://www.w3.org/Graphics/SVG/1.1/DTD/svg11.dtd">
<svg version="1.1" id="Capa_1" xmlns="http://www.w3.org/2000/svg" xmlns:xlink="http://www.w3.org/1999/xlink" x="0px" y="0px"
	 width="54.25px" height="62px" viewBox="0 0 54.25 62" enable-background="new 0 0 54.25 62" xml:space="preserve">
<path fill="#343448" d="M11.625,0C9.494,0,7.75,1.744,7.75,3.875v54.25C7.75,60.256,9.494,62,11.625,62h38.75
	c2.131,0,3.875-1.744,3.875-3.875V15.5L38.75,0H11.625z"/>
<path fill="#50506A" d="M42.625,15.5H54.25L38.75,0v11.625C38.75,13.756,40.494,15.5,42.625,15.5z"/>
<path fill="#2A2A3D" d="M54.25,27.125L42.625,15.5H54.25V27.125z"/>
<path fill="#1F6D42" d="M46.5,50.825c0,1.065-0.872,1.938-1.938,1.938H1.938C0.872,52.763,0,51.891,0,50.825V31.45
	c0-1.065,0.872-1.938,1.938-1.938h42.625c1.065,0,1.938,0.872,1.938,1.938V50.825z"/>
<path fill="#2A2A3D" d="M44.563,52.763H7.75V54.7h36.813c1.065,0,1.938-0.872,1.938-1.938v-1.938
	C46.5,51.891,45.628,52.763,44.563,52.763z"/>
<path fill="#FFFFFF" d="M9.49,39.511l2.697-3.377c0.804-1.053,2.37,0.295,1.488,1.301c-0.928,1.102-1.904,2.295-2.836,3.516
	L14,44.886c0.851,1.162-0.853,2.277-1.689,1.131l-2.85-3.656l-2.804,3.734C5.867,47.224,4.115,45.954,5,44.901l3.114-3.951
	c-0.977-1.223-1.922-2.414-2.866-3.516c-0.977-1.162,0.837-2.354,1.548-1.268L9.49,39.511z"/>
<path fill="#FFFFFF" d="M15.577,36.716c0-0.512,0.434-0.945,0.977-0.945c0.496,0,0.914,0.436,0.914,0.945v7.762h4.214
	c1.518,0,1.551,2.027,0,2.027h-5.126c-0.543,0-0.977-0.385-0.977-0.945v-8.844H15.577z"/>
<path fill="#FFFFFF" d="M24.915,38.184c0.355-3.005,4.894-3.546,7.033-1.902c1.054,0.851-0.063,2.199-0.992,1.517
	c-1.147-0.729-3.75-1.069-4.074,0.541c-0.419,2.542,6.319,1.087,6.211,5.206c-0.108,3.935-5.809,4.028-7.947,2.261
	c-0.512-0.416-0.496-1.096-0.217-1.517c0.402-0.401,0.85-0.541,1.379-0.108c1.27,0.867,4.539,1.519,4.771-0.684
	C30.878,41.206,24.435,42.586,24.915,38.184z"/>
<path fill="#FFFFFF" d="M38.621,39.511l2.697-3.377c0.804-1.053,2.369,0.295,1.487,1.301c-0.928,1.102-1.904,2.295-2.837,3.516
	l3.162,3.936c0.852,1.162-0.852,2.277-1.689,1.131l-2.85-3.656l-2.804,3.734c-0.79,1.129-2.542-0.141-1.657-1.193l3.114-3.951
	c-0.977-1.223-1.922-2.414-2.866-3.516c-0.977-1.162,0.838-2.354,1.549-1.268L38.621,39.511z"/>
</svg>
