<svg xmlns="http://www.w3.org/2000/svg" xmlns:xlink="http://www.w3.org/1999/xlink" width="390" height="73" viewBox="0 0 390 73"><rect width="100%" height="100%" fill="#DDDDDD"/><path d="M118.86 30.41L116.20 29.94Q116.51 27.81 117.39 26.20Q118.27 24.59 119.59 23.51Q120.91 22.44 122.62 21.89Q124.34 21.35 126.30 21.35L126.30 21.35Q128.35 21.35 130.00 21.93Q131.66 22.52 132.82 23.55Q133.99 24.59 134.62 25.98Q135.24 27.38 135.24 29.00L135.24 29.00Q135.24 30.41 134.92 31.49Q134.61 32.56 134.01 33.36Q133.42 34.16 132.54 34.72Q131.66 35.27 130.55 35.64L130.55 35.64Q133.21 36.48 134.53 38.20Q135.84 39.92 135.84 42.53L135.84 42.53Q135.84 44.74 135.02 46.44Q134.20 48.14 132.80 49.30Q131.41 50.46 129.57 51.05Q127.74 51.65 125.69 51.65L125.69 51.65Q123.46 51.65 121.79 51.14Q120.13 50.62 118.90 49.62Q117.67 48.62 116.81 47.16Q115.95 45.70 115.34 43.80L115.34 43.80L117.57 42.88Q118.45 42.51 119.22 42.68Q119.99 42.86 120.34 43.51L120.34 43.51Q120.71 44.23 121.15 44.93Q121.59 45.62 122.20 46.17Q122.82 46.71 123.65 47.05Q124.48 47.39 125.63 47.39L125.63 47.39Q126.92 47.39 127.88 46.97Q128.85 46.55 129.49 45.87Q130.14 45.19 130.46 44.36Q130.77 43.53 130.77 42.69L130.77 42.69Q130.77 41.63 130.55 40.75Q130.32 39.88 129.61 39.27Q128.89 38.65 127.54 38.30Q126.20 37.96 123.95 37.96L123.95 37.96L123.95 34.35Q125.81 34.33 127.04 34.00Q128.27 33.67 129.00 33.09Q129.73 32.50 130.02 31.68Q130.30 30.86 130.30 29.88L130.30 29.88Q130.30 27.79 129.13 26.70Q127.97 25.61 126.02 25.61L126.02 25.61Q125.12 25.61 124.36 25.87Q123.60 26.13 122.99 26.59Q122.39 27.05 121.98 27.66Q121.57 28.28 121.36 29.02L121.36 29.02Q121.02 29.96 120.45 30.27Q119.89 30.58 118.86 30.41L118.86 30.41ZM144.53 30.58L144.53 30.58Q144.53 33.06 145.81 34.36Q147.09 35.66 149.45 35.66L149.45 35.66Q150.68 35.66 151.64 35.27Q152.61 34.88 153.26 34.20Q153.92 33.53 154.26 32.61Q154.59 31.68 154.59 30.62L154.59 30.62Q154.59 29.41 154.23 28.45Q153.86 27.50 153.18 26.84Q152.50 26.19 151.57 25.84Q150.64 25.49 149.53 25.49L149.53 25.49Q148.38 25.49 147.46 25.87Q146.54 26.25 145.88 26.93Q145.23 27.60 144.88 28.54Q144.53 29.47 144.53 30.58ZM142.05 51.32L151.25 39.82Q151.60 39.39 151.91 38.98Q152.22 38.57 152.50 38.16L152.50 38.16Q151.48 38.82 150.25 39.15Q149.02 39.49 147.67 39.49L147.67 39.49Q146.13 39.49 144.65 38.96Q143.18 38.43 142.03 37.35Q140.88 36.27 140.17 34.69Q139.47 33.10 139.47 30.96L139.47 30.96Q139.47 28.98 140.20 27.23Q140.94 25.49 142.27 24.18Q143.61 22.87 145.47 22.11Q147.34 21.35 149.59 21.35L149.59 21.35Q151.87 21.35 153.68 22.07Q155.50 22.79 156.78 24.08Q158.06 25.37 158.75 27.17Q159.43 28.98 159.43 31.13L159.43 31.13Q159.43 32.50 159.20 33.73Q158.96 34.96 158.53 36.10Q158.10 37.24 157.49 38.32Q156.87 39.41 156.11 40.48L156.11 40.48L149.33 50.15Q148.98 50.65 148.28 50.98Q147.58 51.32 146.70 51.32L146.70 51.32L142.05 51.32ZM184.30 36.50L184.30 36.50Q184.30 40.37 183.47 43.23Q182.64 46.09 181.17 47.96Q179.71 49.83 177.71 50.74Q175.71 51.65 173.39 51.65L173.39 51.65Q171.08 51.65 169.10 50.74Q167.12 49.83 165.66 47.96Q164.21 46.09 163.39 43.23Q162.57 40.37 162.57 36.50L162.57 36.50Q162.57 32.61 163.39 29.76Q164.21 26.91 165.66 25.04Q167.12 23.18 169.10 22.26Q171.08 21.35 173.39 21.35L173.39 21.35Q175.71 21.35 177.71 22.26Q179.71 23.18 181.17 25.04Q182.64 26.91 183.47 29.76Q184.30 32.61 184.30 36.50ZM179.07 36.50L179.07 36.50Q179.07 33.28 178.60 31.17Q178.13 29.06 177.34 27.81Q176.55 26.56 175.53 26.06Q174.50 25.55 173.39 25.55L173.39 25.55Q172.31 25.55 171.29 26.06Q170.28 26.56 169.50 27.81Q168.72 29.06 168.26 31.17Q167.80 33.28 167.80 36.50L167.80 36.50Q167.80 39.72 168.26 41.83Q168.72 43.94 169.50 45.19Q170.28 46.44 171.29 46.94Q172.31 47.45 173.39 47.45L173.39 47.45Q174.50 47.45 175.53 46.94Q176.55 46.44 177.34 45.19Q178.13 43.94 178.60 41.83Q179.07 39.72 179.07 36.50ZM216.85 44.54L214.17 47.18L207.22 40.23L200.21 47.22L197.52 44.58L204.53 37.55L197.85 30.86L200.51 28.20L207.20 34.88L213.84 28.24L216.55 30.90L209.88 37.57L216.85 44.54ZM230.94 21.68L251.42 21.68L251.42 23.87Q251.42 24.86 251.21 25.46Q251.01 26.07 250.80 26.48L250.80 26.48L239.57 49.60Q239.22 50.32 238.58 50.82Q237.95 51.32 236.88 51.32L236.88 51.32L233.21 51.32L244.67 28.67Q245.06 27.97 245.44 27.39Q245.82 26.80 246.29 26.27L246.29 26.27L232.10 26.27Q231.63 26.27 231.28 25.92Q230.94 25.57 230.94 25.10L230.94 25.10L230.94 21.68ZM257.69 30.41L255.02 29.94Q255.33 27.81 256.21 26.20Q257.09 24.59 258.42 23.51Q259.74 22.44 261.45 21.89Q263.16 21.35 265.13 21.35L265.13 21.35Q267.18 21.35 268.83 21.93Q270.48 22.52 271.65 23.55Q272.82 24.59 273.44 25.98Q274.07 27.38 274.07 29.00L274.07 29.00Q274.07 30.41 273.75 31.49Q273.43 32.56 272.84 33.36Q272.24 34.16 271.36 34.72Q270.48 35.27 269.37 35.64L269.37 35.64Q272.04 36.48 273.35 38.20Q274.66 39.92 274.66 42.53L274.66 42.53Q274.66 44.74 273.84 46.44Q273.02 48.14 271.63 49.30Q270.24 50.46 268.40 51.05Q266.57 51.65 264.52 51.65L264.52 51.65Q262.28 51.65 260.62 51.14Q258.96 50.62 257.73 49.62Q256.50 48.62 255.64 47.16Q254.78 45.70 254.16 43.80L254.16 43.80L256.40 42.88Q257.28 42.51 258.05 42.68Q258.82 42.86 259.17 43.51L259.17 43.51Q259.53 44.23 259.97 44.93Q260.42 45.62 261.03 46.17Q261.65 46.71 262.48 47.05Q263.31 47.39 264.45 47.39L264.45 47.39Q265.75 47.39 266.71 46.97Q267.67 46.55 268.32 45.87Q268.96 45.19 269.28 44.36Q269.60 43.53 269.60 42.69L269.60 42.69Q269.60 41.63 269.37 40.75Q269.15 39.88 268.43 39.27Q267.71 38.65 266.37 38.30Q265.03 37.96 262.77 37.96L262.77 37.96L262.77 34.35Q264.64 34.33 265.87 34.00Q267.10 33.67 267.83 33.09Q268.55 32.50 268.84 31.68Q269.13 30.86 269.13 29.88L269.13 29.88Q269.13 27.79 267.96 26.70Q266.79 25.61 264.84 25.61L264.84 25.61Q263.94 25.61 263.18 25.87Q262.42 26.13 261.82 26.59Q261.22 27.05 260.81 27.66Q260.39 28.28 260.19 29.02L260.19 29.02Q259.84 29.96 259.28 30.27Q258.71 30.58 257.69 30.41L257.69 30.41Z" fill="#999999"/></svg>